solid OpenSCAD_Model
  facet normal 1 0 0
    outer loop
      vertex 19.85 34.3832 3.5309
      vertex 19.85 -48.5 3.5309
      vertex 19.85 33.9354 3.07836
    endloop
  endfacet
  facet normal 1 0 0
    outer loop
      vertex 19.85 33.9354 3.07836
      vertex 19.85 35.0495 0
      vertex 19.85 35.0495 3.05058
    endloop
  endfacet
  facet normal 1 0 0
    outer loop
      vertex 19.85 -48.5 0
      vertex 19.85 33.9354 3.07836
      vertex 19.85 -48.5 3.5309
    endloop
  endfacet
  facet normal 1 0 0
    outer loop
      vertex 19.85 33.9354 3.07836
      vertex 19.85 -48.5 0
      vertex 19.85 35.0495 0
    endloop
  endfacet
  facet normal -1 0 0
    outer loop
      vertex -22.55 35.0495 0
      vertex -22.55 33.9354 3.07836
      vertex -22.55 35.0495 3.05058
    endloop
  endfacet
  facet normal -1 0 -0
    outer loop
      vertex -22.55 33.9354 3.07836
      vertex -22.55 35.0495 0
      vertex -22.55 -48.5 0
    endloop
  endfacet
  facet normal -1 0 0
    outer loop
      vertex -22.55 -48.5 3.5309
      vertex -22.55 33.9354 3.07836
      vertex -22.55 -48.5 0
    endloop
  endfacet
  facet normal -1 0 0
    outer loop
      vertex -22.55 33.9354 3.07836
      vertex -22.55 -48.5 3.5309
      vertex -22.55 34.3832 3.5309
    endloop
  endfacet
  facet normal 0.87462 0 -0.48481
    outer loop
      vertex 19.768 -48.5 3.57633
      vertex 23.65 29.6617 10.5796
      vertex 23.65 -48.5 10.5796
    endloop
  endfacet
  facet normal 0.87462 2.0242e-09 -0.48481
    outer loop
      vertex 23.65 29.6617 10.5796
      vertex 19.768 -48.5 3.57633
      vertex 21.1242 32.9271 6.02285
    endloop
  endfacet
  facet normal 0.87462 0 -0.48481
    outer loop
      vertex 21.1242 32.9271 6.02285
      vertex 19.768 -48.5 3.57633
      vertex 19.768 34.6804 3.57633
    endloop
  endfacet
  facet normal 0.48481 -0 0.87462
    outer loop
      vertex 19.768 -48.5 3.57633
      vertex 19.85 34.3832 3.5309
      vertex 19.768 34.6804 3.57633
    endloop
  endfacet
  facet normal 0.48481 0 0.87462
    outer loop
      vertex 19.85 34.3832 3.5309
      vertex 19.768 -48.5 3.57633
      vertex 19.85 -48.5 3.5309
    endloop
  endfacet
  facet normal -0.874619 0 -0.48481
    outer loop
      vertex -22.468 -48.5 3.57633
      vertex -23.8242 32.9271 6.02285
      vertex -22.468 34.6804 3.57633
    endloop
  endfacet
  facet normal -0.87462 -2.58145e-08 -0.484809
    outer loop
      vertex -22.468 -48.5 3.57633
      vertex -26.35 29.6617 10.5796
      vertex -23.8242 32.9271 6.02285
    endloop
  endfacet
  facet normal -0.87462 -0 -0.48481
    outer loop
      vertex -26.35 29.6617 10.5796
      vertex -22.468 -48.5 3.57633
      vertex -26.35 -48.5 10.5796
    endloop
  endfacet
  facet normal -0.48481 0 0.87462
    outer loop
      vertex -22.55 34.3832 3.5309
      vertex -22.468 -48.5 3.57633
      vertex -22.468 34.6804 3.57633
    endloop
  endfacet
  facet normal -0.48481 0 0.87462
    outer loop
      vertex -22.468 -48.5 3.57633
      vertex -22.55 34.3832 3.5309
      vertex -22.55 -48.5 3.5309
    endloop
  endfacet
  facet normal 1 -0 0
    outer loop
      vertex -22.6 -45.5 11
      vertex -22.6 -6.5 7.1
      vertex -22.6 -6.5 11
    endloop
  endfacet
  facet normal 1 0 0
    outer loop
      vertex -22.6 -6.5 7.1
      vertex -22.6 -45.5 11
      vertex -22.6 -45.5 7.1
    endloop
  endfacet
  facet normal -1 0 0
    outer loop
      vertex 17.9 -40 7.1
      vertex 17.9 -0.6 11
      vertex 17.9 -0.6 7.1
    endloop
  endfacet
  facet normal -1 -0 0
    outer loop
      vertex 17.9 -0.6 11
      vertex 17.9 -40 7.1
      vertex 17.9 -40 11
    endloop
  endfacet
  facet normal 0 -1 0
    outer loop
      vertex -22.6 -6.5 7.1
      vertex -13.1 -6.5 11
      vertex -22.6 -6.5 11
    endloop
  endfacet
  facet normal 0 -1 -0
    outer loop
      vertex -13.1 -6.5 11
      vertex -22.6 -6.5 7.1
      vertex -13.1 -6.5 7.1
    endloop
  endfacet
  facet normal 0 0 1
    outer loop
      vertex -11 -26.9199 7.1
      vertex -22.6 -6.5 7.1
      vertex -11.8457 -27.5343 7.1
    endloop
  endfacet
  facet normal 0 0 1
    outer loop
      vertex -13.1 -6.5 7.1
      vertex -12.9892 -0.6 7.1
      vertex -13.1 -0.6 7.1
    endloop
  endfacet
  facet normal 0 0 1
    outer loop
      vertex -11.8457 -27.5343 7.1
      vertex -22.6 -6.5 7.1
      vertex -12.5451 -28.3111 7.1
    endloop
  endfacet
  facet normal 0 0 1
    outer loop
      vertex -12.5451 -28.3111 7.1
      vertex -22.6 -6.5 7.1
      vertex -13.0677 -29.2163 7.1
    endloop
  endfacet
  facet normal 0 0 1
    outer loop
      vertex -13.0677 -29.2163 7.1
      vertex -22.6 -6.5 7.1
      vertex -13.3907 -30.2104 7.1
    endloop
  endfacet
  facet normal 0 0 1
    outer loop
      vertex -22.6 -45.5 7.1
      vertex -13.3907 -30.2104 7.1
      vertex -22.6 -6.5 7.1
    endloop
  endfacet
  facet normal 0 0 1
    outer loop
      vertex 17.9 -40 7.1
      vertex -3.60926 -30.2104 7.1
      vertex -3.5 -31.25 7.1
    endloop
  endfacet
  facet normal 0 0 1
    outer loop
      vertex -13.1 -6.5 7.1
      vertex -3.125 -6.06458 7.1
      vertex -3.67467 -5.66522 7.1
    endloop
  endfacet
  facet normal 0 0 1
    outer loop
      vertex -2.5043 -6.34093 7.1
      vertex -3.93227 -29.2163 7.1
      vertex -3.60926 -30.2104 7.1
    endloop
  endfacet
  facet normal 0 0 1
    outer loop
      vertex -13.1 -6.5 7.1
      vertex -3.67467 -5.66522 7.1
      vertex -4.1293 -5.1603 7.1
    endloop
  endfacet
  facet normal 0 0 1
    outer loop
      vertex -2.5043 -6.34093 7.1
      vertex -4.45491 -28.3111 7.1
      vertex -3.93227 -29.2163 7.1
    endloop
  endfacet
  facet normal 0 0 1
    outer loop
      vertex -4.67898 -3.92571 7.1
      vertex -13.1 -6.5 7.1
      vertex -4.46902 -4.57189 7.1
    endloop
  endfacet
  facet normal 0 0 1
    outer loop
      vertex -4.75 -3.25 7.1
      vertex -13.1 -6.5 7.1
      vertex -4.67898 -3.92571 7.1
    endloop
  endfacet
  facet normal 0 0 1
    outer loop
      vertex -13.1 -6.5 7.1
      vertex -4.75 -3.25 7.1
      vertex -12.9892 -0.6 7.1
    endloop
  endfacet
  facet normal 0 0 1
    outer loop
      vertex -2.5043 -6.34093 7.1
      vertex -5.15435 -27.5343 7.1
      vertex -4.45491 -28.3111 7.1
    endloop
  endfacet
  facet normal 0 0 1
    outer loop
      vertex -4.67898 -2.57429 7.1
      vertex -12.9892 -0.6 7.1
      vertex -4.75 -3.25 7.1
    endloop
  endfacet
  facet normal 0 0 1
    outer loop
      vertex -20.15 7.538 7.1
      vertex -4.84565 15.0343 7.1
      vertex -5.54508 15.8111 7.1
    endloop
  endfacet
  facet normal 0 0 1
    outer loop
      vertex -4.46902 -4.57189 7.1
      vertex -13.1 -6.5 7.1
      vertex -4.1293 -5.1603 7.1
    endloop
  endfacet
  facet normal 0 0 1
    outer loop
      vertex -20.15 7.538 7.1
      vertex -5.54508 15.8111 7.1
      vertex -6.06773 16.7163 7.1
    endloop
  endfacet
  facet normal 0 0 1
    outer loop
      vertex -20.15 7.538 7.1
      vertex -6.06773 16.7163 7.1
      vertex -6.39074 17.7104 7.1
    endloop
  endfacet
  facet normal 0 0 1
    outer loop
      vertex -20.15 7.538 7.1
      vertex -6.39074 17.7104 7.1
      vertex -6.5 18.75 7.1
    endloop
  endfacet
  facet normal 0 0 1
    outer loop
      vertex -2.5043 -6.34093 7.1
      vertex -6 -26.9199 7.1
      vertex -5.15435 -27.5343 7.1
    endloop
  endfacet
  facet normal 0 0 1
    outer loop
      vertex 13.0837 -0.6 7.1
      vertex 1.67898 -2.57429 7.1
      vertex 1.75 -3.25 7.1
    endloop
  endfacet
  facet normal 0 0 1
    outer loop
      vertex 13.0837 -0.6 7.1
      vertex 1.46902 -1.92811 7.1
      vertex 1.67898 -2.57429 7.1
    endloop
  endfacet
  facet normal 0 0 1
    outer loop
      vertex 13.0837 -0.6 7.1
      vertex 1.1293 -1.3397 7.1
      vertex 1.46902 -1.92811 7.1
    endloop
  endfacet
  facet normal 0 0 1
    outer loop
      vertex 13.0837 -0.6 7.1
      vertex 1 14.4199 7.1
      vertex 0.674674 -0.83478 7.1
    endloop
  endfacet
  facet normal 0 0 1
    outer loop
      vertex 13.0837 -0.6 7.1
      vertex 0.674674 -0.83478 7.1
      vertex 1.1293 -1.3397 7.1
    endloop
  endfacet
  facet normal 0 0 1
    outer loop
      vertex 1 14.4199 7.1
      vertex 0.125 -0.435418 7.1
      vertex 0.674674 -0.83478 7.1
    endloop
  endfacet
  facet normal -0 0 1
    outer loop
      vertex 0.045085 13.9947 7.1
      vertex 0.125 -0.435418 7.1
      vertex 1 14.4199 7.1
    endloop
  endfacet
  facet normal 0 0 1
    outer loop
      vertex 0.045085 13.9947 7.1
      vertex -0.495695 -0.159067 7.1
      vertex 0.125 -0.435418 7.1
    endloop
  endfacet
  facet normal -0 0 1
    outer loop
      vertex -0.977358 13.7774 7.1
      vertex -0.495695 -0.159067 7.1
      vertex 0.045085 13.9947 7.1
    endloop
  endfacet
  facet normal 0 0 1
    outer loop
      vertex -0.977358 13.7774 7.1
      vertex -1.16028 -0.0178041 7.1
      vertex -0.495695 -0.159067 7.1
    endloop
  endfacet
  facet normal 0 0 1
    outer loop
      vertex -0.977358 13.7774 7.1
      vertex -1.83972 -0.0178041 7.1
      vertex -1.16028 -0.0178041 7.1
    endloop
  endfacet
  facet normal -0 0 1
    outer loop
      vertex -2.02264 13.7774 7.1
      vertex -1.83972 -0.0178041 7.1
      vertex -0.977358 13.7774 7.1
    endloop
  endfacet
  facet normal 0 0 1
    outer loop
      vertex -2.02264 13.7774 7.1
      vertex -2.5043 -0.159067 7.1
      vertex -1.83972 -0.0178041 7.1
    endloop
  endfacet
  facet normal 0 0 1
    outer loop
      vertex -3.04508 13.9947 7.1
      vertex -2.5043 -0.159067 7.1
      vertex -2.02264 13.7774 7.1
    endloop
  endfacet
  facet normal 0 0 1
    outer loop
      vertex -3.04508 13.9947 7.1
      vertex -3.125 -0.435418 7.1
      vertex -2.5043 -0.159067 7.1
    endloop
  endfacet
  facet normal 0 0 1
    outer loop
      vertex -4 14.4199 7.1
      vertex -3.125 -0.435418 7.1
      vertex -3.04508 13.9947 7.1
    endloop
  endfacet
  facet normal 0 0 1
    outer loop
      vertex -12.9892 -0.6 7.1
      vertex -3.125 -0.435418 7.1
      vertex -4 14.4199 7.1
    endloop
  endfacet
  facet normal 0 0 1
    outer loop
      vertex -12.9892 -0.6 7.1
      vertex -4 14.4199 7.1
      vertex -4.84565 15.0343 7.1
    endloop
  endfacet
  facet normal 0 0 1
    outer loop
      vertex -3.125 -0.435418 7.1
      vertex -12.9892 -0.6 7.1
      vertex -3.67467 -0.83478 7.1
    endloop
  endfacet
  facet normal 0 0 1
    outer loop
      vertex -3.67467 -0.83478 7.1
      vertex -12.9892 -0.6 7.1
      vertex -4.1293 -1.3397 7.1
    endloop
  endfacet
  facet normal 0 0 1
    outer loop
      vertex -4.1293 -1.3397 7.1
      vertex -12.9892 -0.6 7.1
      vertex -4.46902 -1.92811 7.1
    endloop
  endfacet
  facet normal 0 0 1
    outer loop
      vertex -4.46902 -1.92811 7.1
      vertex -12.9892 -0.6 7.1
      vertex -4.67898 -2.57429 7.1
    endloop
  endfacet
  facet normal 0 0 1
    outer loop
      vertex 18.2529 41.5 7.1
      vertex 3.5 18.75 7.1
      vertex 13.0837 -0.6 7.1
    endloop
  endfacet
  facet normal 0 0 1
    outer loop
      vertex 18.2529 41.5 7.1
      vertex 3.39074 19.7896 7.1
      vertex 3.5 18.75 7.1
    endloop
  endfacet
  facet normal 0 0 1
    outer loop
      vertex 18.2529 41.5 7.1
      vertex 3.06773 20.7837 7.1
      vertex 3.39074 19.7896 7.1
    endloop
  endfacet
  facet normal 0 0 1
    outer loop
      vertex 18.2529 41.5 7.1
      vertex 2.54508 21.6889 7.1
      vertex 3.06773 20.7837 7.1
    endloop
  endfacet
  facet normal 0 0 1
    outer loop
      vertex 18.2529 41.5 7.1
      vertex 1.84565 22.4657 7.1
      vertex 2.54508 21.6889 7.1
    endloop
  endfacet
  facet normal 0 0 1
    outer loop
      vertex 18.2529 41.5 7.1
      vertex 1 23.0801 7.1
      vertex 1.84565 22.4657 7.1
    endloop
  endfacet
  facet normal 0 0 1
    outer loop
      vertex 18.2529 41.5 7.1
      vertex 0.045085 23.5053 7.1
      vertex 1 23.0801 7.1
    endloop
  endfacet
  facet normal 0 0 1
    outer loop
      vertex 18.2529 41.5 7.1
      vertex -0.977358 23.7226 7.1
      vertex 0.045085 23.5053 7.1
    endloop
  endfacet
  facet normal -0 0 1
    outer loop
      vertex -20.15 41.5 7.1
      vertex -0.977358 23.7226 7.1
      vertex 18.2529 41.5 7.1
    endloop
  endfacet
  facet normal 0 0 1
    outer loop
      vertex -0.977358 23.7226 7.1
      vertex -20.15 41.5 7.1
      vertex -2.02264 23.7226 7.1
    endloop
  endfacet
  facet normal 0 0 1
    outer loop
      vertex -2.02264 23.7226 7.1
      vertex -20.15 41.5 7.1
      vertex -3.04508 23.5053 7.1
    endloop
  endfacet
  facet normal 0 0 1
    outer loop
      vertex -3.04508 23.5053 7.1
      vertex -20.15 41.5 7.1
      vertex -4 23.0801 7.1
    endloop
  endfacet
  facet normal 0 0 1
    outer loop
      vertex -2.5043 -6.34093 7.1
      vertex -6.95491 -26.4947 7.1
      vertex -6 -26.9199 7.1
    endloop
  endfacet
  facet normal 0 0 1
    outer loop
      vertex -2.5043 -6.34093 7.1
      vertex -7.97736 -26.2774 7.1
      vertex -6.95491 -26.4947 7.1
    endloop
  endfacet
  facet normal -0 0 1
    outer loop
      vertex -13.1 -6.5 7.1
      vertex -7.97736 -26.2774 7.1
      vertex -3.125 -6.06458 7.1
    endloop
  endfacet
  facet normal 0 0 1
    outer loop
      vertex -7.97736 -26.2774 7.1
      vertex -13.1 -6.5 7.1
      vertex -9.02264 -26.2774 7.1
    endloop
  endfacet
  facet normal 0 0 1
    outer loop
      vertex -9.02264 -26.2774 7.1
      vertex -13.1 -6.5 7.1
      vertex -10.0451 -26.4947 7.1
    endloop
  endfacet
  facet normal 0 0 1
    outer loop
      vertex -20.15 7.538 7.1
      vertex -6.5 18.75 7.1
      vertex -6.39074 19.7896 7.1
    endloop
  endfacet
  facet normal 0 0 1
    outer loop
      vertex -10.0451 -26.4947 7.1
      vertex -13.1 -6.5 7.1
      vertex -11 -26.9199 7.1
    endloop
  endfacet
  facet normal -0 0 1
    outer loop
      vertex -22.6 -6.5 7.1
      vertex -11 -26.9199 7.1
      vertex -13.1 -6.5 7.1
    endloop
  endfacet
  facet normal 0 0 1
    outer loop
      vertex -4 23.0801 7.1
      vertex -20.15 41.5 7.1
      vertex -4.84565 22.4657 7.1
    endloop
  endfacet
  facet normal 0 0 1
    outer loop
      vertex -20.15 41.5 7.1
      vertex -5.54508 21.6889 7.1
      vertex -4.84565 22.4657 7.1
    endloop
  endfacet
  facet normal 0 0 1
    outer loop
      vertex -20.15 41.5 7.1
      vertex -6.06773 20.7837 7.1
      vertex -5.54508 21.6889 7.1
    endloop
  endfacet
  facet normal 0 0 1
    outer loop
      vertex -20.15 41.5 7.1
      vertex -6.39074 19.7896 7.1
      vertex -6.06773 20.7837 7.1
    endloop
  endfacet
  facet normal 0 0 1
    outer loop
      vertex -20.15 7.538 7.1
      vertex -6.39074 19.7896 7.1
      vertex -20.15 41.5 7.1
    endloop
  endfacet
  facet normal 0 0 1
    outer loop
      vertex -4.84565 15.0343 7.1
      vertex -20.15 7.538 7.1
      vertex -12.9892 -0.6 7.1
    endloop
  endfacet
  facet normal 0 0 1
    outer loop
      vertex -12.9892 -0.6 7.1
      vertex -20.15 7.538 7.1
      vertex -20.2421 7.45511 7.1
    endloop
  endfacet
  facet normal -0 0 1
    outer loop
      vertex 13.0837 -0.6 7.1
      vertex 17.9 -40 7.1
      vertex 17.9 -0.6 7.1
    endloop
  endfacet
  facet normal -0 0 1
    outer loop
      vertex 0.674674 -5.66522 7.1
      vertex 17.9 -40 7.1
      vertex 13.0837 -0.6 7.1
    endloop
  endfacet
  facet normal -0 0 1
    outer loop
      vertex 3.39074 17.7104 7.1
      vertex 13.0837 -0.6 7.1
      vertex 3.5 18.75 7.1
    endloop
  endfacet
  facet normal -0 0 1
    outer loop
      vertex 3.06773 16.7163 7.1
      vertex 13.0837 -0.6 7.1
      vertex 3.39074 17.7104 7.1
    endloop
  endfacet
  facet normal -0 0 1
    outer loop
      vertex 2.54508 15.8111 7.1
      vertex 13.0837 -0.6 7.1
      vertex 3.06773 16.7163 7.1
    endloop
  endfacet
  facet normal -0 0 1
    outer loop
      vertex 1.84565 15.0343 7.1
      vertex 13.0837 -0.6 7.1
      vertex 2.54508 15.8111 7.1
    endloop
  endfacet
  facet normal -0 0 1
    outer loop
      vertex 1 14.4199 7.1
      vertex 13.0837 -0.6 7.1
      vertex 1.84565 15.0343 7.1
    endloop
  endfacet
  facet normal 0 0 1
    outer loop
      vertex 1.67898 -3.92571 7.1
      vertex 13.0837 -0.6 7.1
      vertex 1.75 -3.25 7.1
    endloop
  endfacet
  facet normal 0 0 1
    outer loop
      vertex 1.46902 -4.57189 7.1
      vertex 13.0837 -0.6 7.1
      vertex 1.67898 -3.92571 7.1
    endloop
  endfacet
  facet normal 0 0 1
    outer loop
      vertex 1.1293 -5.1603 7.1
      vertex 13.0837 -0.6 7.1
      vertex 1.46902 -4.57189 7.1
    endloop
  endfacet
  facet normal 0 0 1
    outer loop
      vertex 0.674674 -5.66522 7.1
      vertex 13.0837 -0.6 7.1
      vertex 1.1293 -5.1603 7.1
    endloop
  endfacet
  facet normal -0 0 1
    outer loop
      vertex -3.60926 -30.2104 7.1
      vertex 17.9 -40 7.1
      vertex 0.674674 -5.66522 7.1
    endloop
  endfacet
  facet normal 0 0 1
    outer loop
      vertex -3.60926 -30.2104 7.1
      vertex 0.674674 -5.66522 7.1
      vertex 0.125 -6.06458 7.1
    endloop
  endfacet
  facet normal 0 0 1
    outer loop
      vertex -3.60926 -30.2104 7.1
      vertex 0.125 -6.06458 7.1
      vertex -0.495695 -6.34093 7.1
    endloop
  endfacet
  facet normal 0 0 1
    outer loop
      vertex -3.60926 -30.2104 7.1
      vertex -0.495695 -6.34093 7.1
      vertex -1.16028 -6.4822 7.1
    endloop
  endfacet
  facet normal 0 0 1
    outer loop
      vertex -3.60926 -30.2104 7.1
      vertex -1.16028 -6.4822 7.1
      vertex -1.83972 -6.4822 7.1
    endloop
  endfacet
  facet normal 0 0 1
    outer loop
      vertex -3.60926 -30.2104 7.1
      vertex -1.83972 -6.4822 7.1
      vertex -2.5043 -6.34093 7.1
    endloop
  endfacet
  facet normal 0 0 1
    outer loop
      vertex -7.97736 -26.2774 7.1
      vertex -2.5043 -6.34093 7.1
      vertex -3.125 -6.06458 7.1
    endloop
  endfacet
  facet normal -0 0 1
    outer loop
      vertex -3.60926 -32.2896 7.1
      vertex 17.9 -40 7.1
      vertex -3.5 -31.25 7.1
    endloop
  endfacet
  facet normal 0 0 1
    outer loop
      vertex 17.9 -40 7.1
      vertex -3.60926 -32.2896 7.1
      vertex 13.15 -45.5 7.1
    endloop
  endfacet
  facet normal -0 0 1
    outer loop
      vertex -3.93227 -33.2837 7.1
      vertex 13.15 -45.5 7.1
      vertex -3.60926 -32.2896 7.1
    endloop
  endfacet
  facet normal -0 0 1
    outer loop
      vertex -4.45491 -34.1889 7.1
      vertex 13.15 -45.5 7.1
      vertex -3.93227 -33.2837 7.1
    endloop
  endfacet
  facet normal -0 0 1
    outer loop
      vertex -5.15435 -34.9657 7.1
      vertex 13.15 -45.5 7.1
      vertex -4.45491 -34.1889 7.1
    endloop
  endfacet
  facet normal -0 0 1
    outer loop
      vertex -6 -35.5801 7.1
      vertex 13.15 -45.5 7.1
      vertex -5.15435 -34.9657 7.1
    endloop
  endfacet
  facet normal -0 0 1
    outer loop
      vertex -6.95491 -36.0053 7.1
      vertex 13.15 -45.5 7.1
      vertex -6 -35.5801 7.1
    endloop
  endfacet
  facet normal -0 0 1
    outer loop
      vertex -7.97736 -36.2226 7.1
      vertex 13.15 -45.5 7.1
      vertex -6.95491 -36.0053 7.1
    endloop
  endfacet
  facet normal 0 0 1
    outer loop
      vertex -22.6 -45.5 7.1
      vertex -7.97736 -36.2226 7.1
      vertex -9.02264 -36.2226 7.1
    endloop
  endfacet
  facet normal 0 0 1
    outer loop
      vertex -22.6 -45.5 7.1
      vertex -9.02264 -36.2226 7.1
      vertex -10.0451 -36.0053 7.1
    endloop
  endfacet
  facet normal 0 0 1
    outer loop
      vertex -13.3907 -30.2104 7.1
      vertex -22.6 -45.5 7.1
      vertex -13.5 -31.25 7.1
    endloop
  endfacet
  facet normal 0 0 1
    outer loop
      vertex -13.5 -31.25 7.1
      vertex -22.6 -45.5 7.1
      vertex -13.3907 -32.2896 7.1
    endloop
  endfacet
  facet normal 0 0 1
    outer loop
      vertex -7.97736 -36.2226 7.1
      vertex -22.6 -45.5 7.1
      vertex 13.15 -45.5 7.1
    endloop
  endfacet
  facet normal 0 0 1
    outer loop
      vertex -11 -35.5801 7.1
      vertex -22.6 -45.5 7.1
      vertex -10.0451 -36.0053 7.1
    endloop
  endfacet
  facet normal 0 0 1
    outer loop
      vertex -11.8457 -34.9657 7.1
      vertex -22.6 -45.5 7.1
      vertex -11 -35.5801 7.1
    endloop
  endfacet
  facet normal 0 0 1
    outer loop
      vertex -12.5451 -34.1889 7.1
      vertex -22.6 -45.5 7.1
      vertex -11.8457 -34.9657 7.1
    endloop
  endfacet
  facet normal 0 0 1
    outer loop
      vertex -13.0677 -33.2837 7.1
      vertex -22.6 -45.5 7.1
      vertex -12.5451 -34.1889 7.1
    endloop
  endfacet
  facet normal 0 0 1
    outer loop
      vertex -13.3907 -32.2896 7.1
      vertex -22.6 -45.5 7.1
      vertex -13.0677 -33.2837 7.1
    endloop
  endfacet
  facet normal -0 0 1
    outer loop
      vertex 17.9 -40 7.1
      vertex 17.95 -48.5 7.1
      vertex 17.95 -40 7.1
    endloop
  endfacet
  facet normal -0 0 1
    outer loop
      vertex 13.15 -45.5 7.1
      vertex 17.95 -48.5 7.1
      vertex 17.9 -40 7.1
    endloop
  endfacet
  facet normal 0 0 1
    outer loop
      vertex 17.95 -48.5 7.1
      vertex 13.15 -45.5 7.1
      vertex 13.15 -48.5 7.1
    endloop
  endfacet
  facet normal 0 1 -0
    outer loop
      vertex 13.15 -45.5 7.1
      vertex -22.6 -45.5 11
      vertex 13.15 -45.5 11
    endloop
  endfacet
  facet normal 0 1 0
    outer loop
      vertex -22.6 -45.5 11
      vertex 13.15 -45.5 7.1
      vertex -22.6 -45.5 7.1
    endloop
  endfacet
  facet normal 1 -0 0
    outer loop
      vertex 13.15 -48.5 11
      vertex 13.15 -45.5 7.1
      vertex 13.15 -45.5 11
    endloop
  endfacet
  facet normal 1 0 0
    outer loop
      vertex 13.15 -45.5 7.1
      vertex 13.15 -48.5 11
      vertex 13.15 -48.5 7.1
    endloop
  endfacet
  facet normal -1 0 0
    outer loop
      vertex 17.95 -48.5 7.1
      vertex 17.95 -40 11
      vertex 17.95 -40 7.1
    endloop
  endfacet
  facet normal -1 -0 0
    outer loop
      vertex 17.95 -40 11
      vertex 17.95 -48.5 7.1
      vertex 17.95 -48.5 11
    endloop
  endfacet
  facet normal 0 -1 0
    outer loop
      vertex 17.9 -40 7.1
      vertex 17.95 -40 11
      vertex 17.9 -40 11
    endloop
  endfacet
  facet normal 0 -1 -0
    outer loop
      vertex 17.95 -40 11
      vertex 17.9 -40 7.1
      vertex 17.95 -40 7.1
    endloop
  endfacet
  facet normal 1 -0 0
    outer loop
      vertex -13.1 -6.5 11
      vertex -13.1 -0.6 7.1
      vertex -13.1 -0.6 11
    endloop
  endfacet
  facet normal 1 0 0
    outer loop
      vertex -13.1 -0.6 7.1
      vertex -13.1 -6.5 11
      vertex -13.1 -6.5 7.1
    endloop
  endfacet
  facet normal 0 -1 0
    outer loop
      vertex 13.0837 -0.6 7.1
      vertex 17.9 -0.6 11
      vertex 13.0837 -0.6 11
    endloop
  endfacet
  facet normal 0 -1 -0
    outer loop
      vertex 17.9 -0.6 11
      vertex 13.0837 -0.6 7.1
      vertex 17.9 -0.6 7.1
    endloop
  endfacet
  facet normal 0 -1 0
    outer loop
      vertex -13.1 -0.6 7.1
      vertex -12.9892 -0.6 11
      vertex -13.1 -0.6 11
    endloop
  endfacet
  facet normal 0 -1 -0
    outer loop
      vertex -12.9892 -0.6 11
      vertex -13.1 -0.6 7.1
      vertex -12.9892 -0.6 7.1
    endloop
  endfacet
  facet normal -0.992546 0.121869 0
    outer loop
      vertex 13.0837 -0.6 7.1
      vertex 18.2529 41.5 11
      vertex 18.2529 41.5 7.1
    endloop
  endfacet
  facet normal -0.992546 0.121869 0
    outer loop
      vertex 18.2529 41.5 11
      vertex 13.0837 -0.6 7.1
      vertex 13.0837 -0.6 11
    endloop
  endfacet
  facet normal 1 -0 0
    outer loop
      vertex -20.15 7.538 11
      vertex -20.15 41.5 7.1
      vertex -20.15 41.5 11
    endloop
  endfacet
  facet normal 1 0 0
    outer loop
      vertex -20.15 41.5 7.1
      vertex -20.15 7.538 11
      vertex -20.15 7.538 7.1
    endloop
  endfacet
  facet normal 0.743145 0.669131 0
    outer loop
      vertex -12.9892 -0.6 11
      vertex -20.2421 7.45511 7.1
      vertex -20.2421 7.45511 11
    endloop
  endfacet
  facet normal 0.743145 0.669131 0
    outer loop
      vertex -20.2421 7.45511 7.1
      vertex -12.9892 -0.6 11
      vertex -12.9892 -0.6 7.1
    endloop
  endfacet
  facet normal 0.66913 -0.743146 0
    outer loop
      vertex -20.2421 7.45511 7.1
      vertex -20.15 7.538 11
      vertex -20.2421 7.45511 11
    endloop
  endfacet
  facet normal 0.66913 -0.743146 0
    outer loop
      vertex -20.15 7.538 11
      vertex -20.2421 7.45511 7.1
      vertex -20.15 7.538 7.1
    endloop
  endfacet
  facet normal 0.9095 0.295514 -0.292372
    outer loop
      vertex 20.6718 39.2435 11
      vertex 21.1242 32.9271 6.02285
      vertex 19.768 34.6804 3.57633
    endloop
  endfacet
  facet normal 0.9095 0.295515 -0.292372
    outer loop
      vertex 20.6718 39.2435 11
      vertex 17.562 41.5 3.60673
      vertex 19.9387 41.5 11
    endloop
  endfacet
  facet normal 0.9095 0.295515 -0.292372
    outer loop
      vertex 19.768 34.6804 3.57633
      vertex 17.562 41.5 3.60673
      vertex 20.6718 39.2435 11
    endloop
  endfacet
  facet normal 0.9095 0.295514 -0.29237
    outer loop
      vertex 19.85 33.9354 3.07836
      vertex 19.768 34.6804 3.57633
      vertex 19.85 34.3832 3.5309
    endloop
  endfacet
  facet normal 0.9095 0.295515 -0.292371
    outer loop
      vertex 19.768 34.6804 3.57633
      vertex 19.85 33.9354 3.07836
      vertex 17.562 41.5 3.60673
    endloop
  endfacet
  facet normal 0.9095 0.295514 -0.292372
    outer loop
      vertex 23.65 30.0776 11
      vertex 21.1242 32.9271 6.02285
      vertex 20.6718 39.2435 11
    endloop
  endfacet
  facet normal 0.9095 0.295514 -0.292372
    outer loop
      vertex 21.1242 32.9271 6.02285
      vertex 23.65 30.0776 11
      vertex 23.65 29.6617 10.5796
    endloop
  endfacet
  facet normal 0.298935 0.0237833 0.953977
    outer loop
      vertex 17.562 41.5 3.60673
      vertex 19.85 35.0495 3.05058
      vertex 17.6289 41.5 3.58576
    endloop
  endfacet
  facet normal 0.29894 0.0237853 0.953975
    outer loop
      vertex 19.85 35.0495 3.05058
      vertex 17.562 41.5 3.60673
      vertex 19.85 33.9354 3.07836
    endloop
  endfacet
  facet normal -0.9095 0.295514 -0.292372
    outer loop
      vertex -23.8242 32.9271 6.02285
      vertex -26.35 30.0776 11
      vertex -23.3718 39.2435 11
    endloop
  endfacet
  facet normal -0.9095 0.295515 -0.292371
    outer loop
      vertex -26.35 30.0776 11
      vertex -23.8242 32.9271 6.02285
      vertex -26.35 29.6617 10.5796
    endloop
  endfacet
  facet normal -0.9095 0.295515 -0.292372
    outer loop
      vertex -20.262 41.5 3.60673
      vertex -23.3718 39.2435 11
      vertex -22.6387 41.5 11
    endloop
  endfacet
  facet normal -0.9095 0.295514 -0.292372
    outer loop
      vertex -20.262 41.5 3.60673
      vertex -22.468 34.6804 3.57633
      vertex -23.3718 39.2435 11
    endloop
  endfacet
  facet normal -0.9095 0.295514 -0.292371
    outer loop
      vertex -22.55 33.9354 3.07836
      vertex -22.468 34.6804 3.57633
      vertex -20.262 41.5 3.60673
    endloop
  endfacet
  facet normal -0.9095 0.295514 -0.29237
    outer loop
      vertex -22.468 34.6804 3.57633
      vertex -22.55 33.9354 3.07836
      vertex -22.55 34.3832 3.5309
    endloop
  endfacet
  facet normal -0.9095 0.295515 -0.292372
    outer loop
      vertex -23.3718 39.2435 11
      vertex -22.468 34.6804 3.57633
      vertex -23.8242 32.9271 6.02285
    endloop
  endfacet
  facet normal -0.298943 0.0237862 0.953975
    outer loop
      vertex -22.55 35.0495 3.05058
      vertex -20.262 41.5 3.60673
      vertex -20.3289 41.5 3.58576
    endloop
  endfacet
  facet normal -0.29894 0.0237853 0.953975
    outer loop
      vertex -20.262 41.5 3.60673
      vertex -22.55 35.0495 3.05058
      vertex -22.55 33.9354 3.07836
    endloop
  endfacet
  facet normal 0.945519 0.325568 0
    outer loop
      vertex 19.85 35.0495 3.05058
      vertex 17.6289 41.5 0
      vertex 17.6289 41.5 3.58576
    endloop
  endfacet
  facet normal 0.945519 0.325568 0
    outer loop
      vertex 17.6289 41.5 0
      vertex 19.85 35.0495 3.05058
      vertex 19.85 35.0495 0
    endloop
  endfacet
  facet normal -0.945519 0.325568 0
    outer loop
      vertex -22.55 35.0495 3.05058
      vertex -20.3289 41.5 0
      vertex -22.55 35.0495 0
    endloop
  endfacet
  facet normal -0.945519 0.325568 0
    outer loop
      vertex -20.3289 41.5 0
      vertex -22.55 35.0495 3.05058
      vertex -20.3289 41.5 3.58576
    endloop
  endfacet
  facet normal -0.866025 -0.5 0
    outer loop
      vertex 3.06773 20.7837 0
      vertex 2.54508 21.6889 7.1
      vertex 2.54508 21.6889 0
    endloop
  endfacet
  facet normal -0.866025 -0.5 0
    outer loop
      vertex 2.54508 21.6889 7.1
      vertex 3.06773 20.7837 0
      vertex 3.06773 20.7837 7.1
    endloop
  endfacet
  facet normal -0.994522 -0.104529 0
    outer loop
      vertex 3.5 18.75 0
      vertex 3.39074 19.7896 7.1
      vertex 3.39074 19.7896 0
    endloop
  endfacet
  facet normal -0.994522 -0.104529 0
    outer loop
      vertex 3.39074 19.7896 7.1
      vertex 3.5 18.75 0
      vertex 3.5 18.75 7.1
    endloop
  endfacet
  facet normal 0.994522 0.104529 0
    outer loop
      vertex -6.39074 17.7104 7.1
      vertex -6.5 18.75 0
      vertex -6.5 18.75 7.1
    endloop
  endfacet
  facet normal 0.994522 0.104529 0
    outer loop
      vertex -6.5 18.75 0
      vertex -6.39074 17.7104 7.1
      vertex -6.39074 17.7104 0
    endloop
  endfacet
  facet normal -0.743145 -0.669131 0
    outer loop
      vertex 2.54508 21.6889 0
      vertex 1.84565 22.4657 7.1
      vertex 1.84565 22.4657 0
    endloop
  endfacet
  facet normal -0.743145 -0.669131 0
    outer loop
      vertex 1.84565 22.4657 7.1
      vertex 2.54508 21.6889 0
      vertex 2.54508 21.6889 7.1
    endloop
  endfacet
  facet normal -0.20791 -0.978148 0
    outer loop
      vertex -0.977358 23.7226 0
      vertex 0.045085 23.5053 7.1
      vertex -0.977358 23.7226 7.1
    endloop
  endfacet
  facet normal -0.20791 -0.978148 -0
    outer loop
      vertex 0.045085 23.5053 7.1
      vertex -0.977358 23.7226 0
      vertex 0.045085 23.5053 0
    endloop
  endfacet
  facet normal 0.587785 -0.809017 0
    outer loop
      vertex -4.84565 22.4657 0
      vertex -4 23.0801 7.1
      vertex -4.84565 22.4657 7.1
    endloop
  endfacet
  facet normal 0.587785 -0.809017 0
    outer loop
      vertex -4 23.0801 7.1
      vertex -4.84565 22.4657 0
      vertex -4 23.0801 0
    endloop
  endfacet
  facet normal 0.994522 -0.104529 0
    outer loop
      vertex -6.5 18.75 7.1
      vertex -6.39074 19.7896 0
      vertex -6.39074 19.7896 7.1
    endloop
  endfacet
  facet normal 0.994522 -0.104529 0
    outer loop
      vertex -6.39074 19.7896 0
      vertex -6.5 18.75 7.1
      vertex -6.5 18.75 0
    endloop
  endfacet
  facet normal -0.406737 0.913545 0
    outer loop
      vertex 1 14.4199 0
      vertex 0.045085 13.9947 7.1
      vertex 1 14.4199 7.1
    endloop
  endfacet
  facet normal -0.406737 0.913545 0
    outer loop
      vertex 0.045085 13.9947 7.1
      vertex 1 14.4199 0
      vertex 0.045085 13.9947 0
    endloop
  endfacet
  facet normal -0.951057 -0.309017 0
    outer loop
      vertex 3.39074 19.7896 0
      vertex 3.06773 20.7837 7.1
      vertex 3.06773 20.7837 0
    endloop
  endfacet
  facet normal -0.951057 -0.309017 0
    outer loop
      vertex 3.06773 20.7837 7.1
      vertex 3.39074 19.7896 0
      vertex 3.39074 19.7896 7.1
    endloop
  endfacet
  facet normal -0.587785 -0.809017 0
    outer loop
      vertex 1 23.0801 0
      vertex 1.84565 22.4657 7.1
      vertex 1 23.0801 7.1
    endloop
  endfacet
  facet normal -0.587785 -0.809017 -0
    outer loop
      vertex 1.84565 22.4657 7.1
      vertex 1 23.0801 0
      vertex 1.84565 22.4657 0
    endloop
  endfacet
  facet normal 0.20791 -0.978148 0
    outer loop
      vertex -3.04508 23.5053 0
      vertex -2.02264 23.7226 7.1
      vertex -3.04508 23.5053 7.1
    endloop
  endfacet
  facet normal 0.20791 -0.978148 0
    outer loop
      vertex -2.02264 23.7226 7.1
      vertex -3.04508 23.5053 0
      vertex -2.02264 23.7226 0
    endloop
  endfacet
  facet normal -0.406737 -0.913545 0
    outer loop
      vertex 0.045085 23.5053 0
      vertex 1 23.0801 7.1
      vertex 0.045085 23.5053 7.1
    endloop
  endfacet
  facet normal -0.406737 -0.913545 -0
    outer loop
      vertex 1 23.0801 7.1
      vertex 0.045085 23.5053 0
      vertex 1 23.0801 0
    endloop
  endfacet
  facet normal 0.951057 -0.309017 0
    outer loop
      vertex -6.39074 19.7896 7.1
      vertex -6.06773 20.7837 0
      vertex -6.06773 20.7837 7.1
    endloop
  endfacet
  facet normal 0.951057 -0.309017 0
    outer loop
      vertex -6.06773 20.7837 0
      vertex -6.39074 19.7896 7.1
      vertex -6.39074 19.7896 0
    endloop
  endfacet
  facet normal 0.743145 -0.669131 0
    outer loop
      vertex -5.54508 21.6889 7.1
      vertex -4.84565 22.4657 0
      vertex -4.84565 22.4657 7.1
    endloop
  endfacet
  facet normal 0.743145 -0.669131 0
    outer loop
      vertex -4.84565 22.4657 0
      vertex -5.54508 21.6889 7.1
      vertex -5.54508 21.6889 0
    endloop
  endfacet
  facet normal 0.406737 -0.913545 0
    outer loop
      vertex -4 23.0801 0
      vertex -3.04508 23.5053 7.1
      vertex -4 23.0801 7.1
    endloop
  endfacet
  facet normal 0.406737 -0.913545 0
    outer loop
      vertex -3.04508 23.5053 7.1
      vertex -4 23.0801 0
      vertex -3.04508 23.5053 0
    endloop
  endfacet
  facet normal 0.866025 -0.5 0
    outer loop
      vertex -6.06773 20.7837 7.1
      vertex -5.54508 21.6889 0
      vertex -5.54508 21.6889 7.1
    endloop
  endfacet
  facet normal 0.866025 -0.5 0
    outer loop
      vertex -5.54508 21.6889 0
      vertex -6.06773 20.7837 7.1
      vertex -6.06773 20.7837 0
    endloop
  endfacet
  facet normal -0.951057 0.309017 0
    outer loop
      vertex 3.06773 16.7163 0
      vertex 3.39074 17.7104 7.1
      vertex 3.39074 17.7104 0
    endloop
  endfacet
  facet normal -0.951057 0.309017 0
    outer loop
      vertex 3.39074 17.7104 7.1
      vertex 3.06773 16.7163 0
      vertex 3.06773 16.7163 7.1
    endloop
  endfacet
  facet normal 0.406737 0.913545 -0
    outer loop
      vertex -3.04508 13.9947 0
      vertex -4 14.4199 7.1
      vertex -3.04508 13.9947 7.1
    endloop
  endfacet
  facet normal 0.406737 0.913545 0
    outer loop
      vertex -4 14.4199 7.1
      vertex -3.04508 13.9947 0
      vertex -4 14.4199 0
    endloop
  endfacet
  facet normal 0.743145 0.669131 0
    outer loop
      vertex -4.84565 15.0343 7.1
      vertex -5.54508 15.8111 0
      vertex -5.54508 15.8111 7.1
    endloop
  endfacet
  facet normal 0.743145 0.669131 0
    outer loop
      vertex -5.54508 15.8111 0
      vertex -4.84565 15.0343 7.1
      vertex -4.84565 15.0343 0
    endloop
  endfacet
  facet normal -0.743145 0.669131 0
    outer loop
      vertex 1.84565 15.0343 0
      vertex 2.54508 15.8111 7.1
      vertex 2.54508 15.8111 0
    endloop
  endfacet
  facet normal -0.743145 0.669131 0
    outer loop
      vertex 2.54508 15.8111 7.1
      vertex 1.84565 15.0343 0
      vertex 1.84565 15.0343 7.1
    endloop
  endfacet
  facet normal -0.994522 0.104529 0
    outer loop
      vertex 3.39074 17.7104 0
      vertex 3.5 18.75 7.1
      vertex 3.5 18.75 0
    endloop
  endfacet
  facet normal -0.994522 0.104529 0
    outer loop
      vertex 3.5 18.75 7.1
      vertex 3.39074 17.7104 0
      vertex 3.39074 17.7104 7.1
    endloop
  endfacet
  facet normal 0 -1 0
    outer loop
      vertex -2.02264 23.7226 0
      vertex -0.977358 23.7226 7.1
      vertex -2.02264 23.7226 7.1
    endloop
  endfacet
  facet normal 0 -1 -0
    outer loop
      vertex -0.977358 23.7226 7.1
      vertex -2.02264 23.7226 0
      vertex -0.977358 23.7226 0
    endloop
  endfacet
  facet normal 0.951057 0.309017 0
    outer loop
      vertex -6.06773 16.7163 7.1
      vertex -6.39074 17.7104 0
      vertex -6.39074 17.7104 7.1
    endloop
  endfacet
  facet normal 0.951057 0.309017 0
    outer loop
      vertex -6.39074 17.7104 0
      vertex -6.06773 16.7163 7.1
      vertex -6.06773 16.7163 0
    endloop
  endfacet
  facet normal 0.587785 0.809017 -0
    outer loop
      vertex -4 14.4199 0
      vertex -4.84565 15.0343 7.1
      vertex -4 14.4199 7.1
    endloop
  endfacet
  facet normal 0.587785 0.809017 0
    outer loop
      vertex -4.84565 15.0343 7.1
      vertex -4 14.4199 0
      vertex -4.84565 15.0343 0
    endloop
  endfacet
  facet normal -0.587785 0.809017 0
    outer loop
      vertex 1.84565 15.0343 0
      vertex 1 14.4199 7.1
      vertex 1.84565 15.0343 7.1
    endloop
  endfacet
  facet normal -0.587785 0.809017 0
    outer loop
      vertex 1 14.4199 7.1
      vertex 1.84565 15.0343 0
      vertex 1 14.4199 0
    endloop
  endfacet
  facet normal 0.207911 0.978148 -0
    outer loop
      vertex -2.02264 13.7774 0
      vertex -3.04508 13.9947 7.1
      vertex -2.02264 13.7774 7.1
    endloop
  endfacet
  facet normal 0.207911 0.978148 0
    outer loop
      vertex -3.04508 13.9947 7.1
      vertex -2.02264 13.7774 0
      vertex -3.04508 13.9947 0
    endloop
  endfacet
  facet normal -0.207911 0.978148 0
    outer loop
      vertex 0.045085 13.9947 0
      vertex -0.977358 13.7774 7.1
      vertex 0.045085 13.9947 7.1
    endloop
  endfacet
  facet normal -0.207911 0.978148 0
    outer loop
      vertex -0.977358 13.7774 7.1
      vertex 0.045085 13.9947 0
      vertex -0.977358 13.7774 0
    endloop
  endfacet
  facet normal 0.866025 0.5 0
    outer loop
      vertex -5.54508 15.8111 7.1
      vertex -6.06773 16.7163 0
      vertex -6.06773 16.7163 7.1
    endloop
  endfacet
  facet normal 0.866025 0.5 0
    outer loop
      vertex -6.06773 16.7163 0
      vertex -5.54508 15.8111 7.1
      vertex -5.54508 15.8111 0
    endloop
  endfacet
  facet normal -0.866025 0.5 0
    outer loop
      vertex 2.54508 15.8111 0
      vertex 3.06773 16.7163 7.1
      vertex 3.06773 16.7163 0
    endloop
  endfacet
  facet normal -0.866025 0.5 0
    outer loop
      vertex 3.06773 16.7163 7.1
      vertex 2.54508 15.8111 0
      vertex 2.54508 15.8111 7.1
    endloop
  endfacet
  facet normal 0 1 -0
    outer loop
      vertex -0.977358 13.7774 0
      vertex -2.02264 13.7774 7.1
      vertex -0.977358 13.7774 7.1
    endloop
  endfacet
  facet normal 0 1 0
    outer loop
      vertex -2.02264 13.7774 7.1
      vertex -0.977358 13.7774 0
      vertex -2.02264 13.7774 0
    endloop
  endfacet
  facet normal -0.587785 -0.809017 0
    outer loop
      vertex 0.125 -0.435418 0
      vertex 0.674674 -0.83478 7.1
      vertex 0.125 -0.435418 7.1
    endloop
  endfacet
  facet normal -0.587785 -0.809017 -0
    outer loop
      vertex 0.674674 -0.83478 7.1
      vertex 0.125 -0.435418 0
      vertex 0.674674 -0.83478 0
    endloop
  endfacet
  facet normal -0.994522 0.10453 0
    outer loop
      vertex 1.67898 -3.92571 0
      vertex 1.75 -3.25 7.1
      vertex 1.75 -3.25 0
    endloop
  endfacet
  facet normal -0.994522 0.10453 0
    outer loop
      vertex 1.75 -3.25 7.1
      vertex 1.67898 -3.92571 0
      vertex 1.67898 -3.92571 7.1
    endloop
  endfacet
  facet normal 0 1 -0
    outer loop
      vertex -1.16028 -6.4822 0
      vertex -1.83972 -6.4822 7.1
      vertex -1.16028 -6.4822 7.1
    endloop
  endfacet
  facet normal 0 1 0
    outer loop
      vertex -1.83972 -6.4822 7.1
      vertex -1.16028 -6.4822 0
      vertex -1.83972 -6.4822 0
    endloop
  endfacet
  facet normal -0.743145 -0.66913 0
    outer loop
      vertex 1.1293 -1.3397 0
      vertex 0.674674 -0.83478 7.1
      vertex 0.674674 -0.83478 0
    endloop
  endfacet
  facet normal -0.743145 -0.66913 0
    outer loop
      vertex 0.674674 -0.83478 7.1
      vertex 1.1293 -1.3397 0
      vertex 1.1293 -1.3397 7.1
    endloop
  endfacet
  facet normal 0.406737 -0.913545 0
    outer loop
      vertex -3.125 -0.435418 0
      vertex -2.5043 -0.159067 7.1
      vertex -3.125 -0.435418 7.1
    endloop
  endfacet
  facet normal 0.406737 -0.913545 0
    outer loop
      vertex -2.5043 -0.159067 7.1
      vertex -3.125 -0.435418 0
      vertex -2.5043 -0.159067 0
    endloop
  endfacet
  facet normal 0.951056 -0.309017 0
    outer loop
      vertex -4.67898 -2.57429 7.1
      vertex -4.46902 -1.92811 0
      vertex -4.46902 -1.92811 7.1
    endloop
  endfacet
  facet normal 0.951056 -0.309017 0
    outer loop
      vertex -4.46902 -1.92811 0
      vertex -4.67898 -2.57429 7.1
      vertex -4.67898 -2.57429 0
    endloop
  endfacet
  facet normal -0.743145 0.66913 0
    outer loop
      vertex 0.674674 -5.66522 0
      vertex 1.1293 -5.1603 7.1
      vertex 1.1293 -5.1603 0
    endloop
  endfacet
  facet normal -0.743145 0.66913 0
    outer loop
      vertex 1.1293 -5.1603 7.1
      vertex 0.674674 -5.66522 0
      vertex 0.674674 -5.66522 7.1
    endloop
  endfacet
  facet normal -0.951056 -0.309017 0
    outer loop
      vertex 1.67898 -2.57429 0
      vertex 1.46902 -1.92811 7.1
      vertex 1.46902 -1.92811 0
    endloop
  endfacet
  facet normal -0.951056 -0.309017 0
    outer loop
      vertex 1.46902 -1.92811 7.1
      vertex 1.67898 -2.57429 0
      vertex 1.67898 -2.57429 7.1
    endloop
  endfacet
  facet normal -0.866026 -0.5 0
    outer loop
      vertex 1.46902 -1.92811 0
      vertex 1.1293 -1.3397 7.1
      vertex 1.1293 -1.3397 0
    endloop
  endfacet
  facet normal -0.866026 -0.5 0
    outer loop
      vertex 1.1293 -1.3397 7.1
      vertex 1.46902 -1.92811 0
      vertex 1.46902 -1.92811 7.1
    endloop
  endfacet
  facet normal -0.406736 -0.913546 0
    outer loop
      vertex -0.495695 -0.159067 0
      vertex 0.125 -0.435418 7.1
      vertex -0.495695 -0.159067 7.1
    endloop
  endfacet
  facet normal -0.406736 -0.913546 -0
    outer loop
      vertex 0.125 -0.435418 7.1
      vertex -0.495695 -0.159067 0
      vertex 0.125 -0.435418 0
    endloop
  endfacet
  facet normal 0 -1 0
    outer loop
      vertex -1.83972 -0.0178041 0
      vertex -1.16028 -0.0178041 7.1
      vertex -1.83972 -0.0178041 7.1
    endloop
  endfacet
  facet normal 0 -1 -0
    outer loop
      vertex -1.16028 -0.0178041 7.1
      vertex -1.83972 -0.0178041 0
      vertex -1.16028 -0.0178041 0
    endloop
  endfacet
  facet normal 0.994522 0.10453 0
    outer loop
      vertex -4.67898 -3.92571 7.1
      vertex -4.75 -3.25 0
      vertex -4.75 -3.25 7.1
    endloop
  endfacet
  facet normal 0.994522 0.10453 0
    outer loop
      vertex -4.75 -3.25 0
      vertex -4.67898 -3.92571 7.1
      vertex -4.67898 -3.92571 0
    endloop
  endfacet
  facet normal 0.866026 -0.5 0
    outer loop
      vertex -4.46902 -1.92811 7.1
      vertex -4.1293 -1.3397 0
      vertex -4.1293 -1.3397 7.1
    endloop
  endfacet
  facet normal 0.866026 -0.5 0
    outer loop
      vertex -4.1293 -1.3397 0
      vertex -4.46902 -1.92811 7.1
      vertex -4.46902 -1.92811 0
    endloop
  endfacet
  facet normal 0.587785 -0.809017 0
    outer loop
      vertex -3.67467 -0.83478 0
      vertex -3.125 -0.435418 7.1
      vertex -3.67467 -0.83478 7.1
    endloop
  endfacet
  facet normal 0.587785 -0.809017 0
    outer loop
      vertex -3.125 -0.435418 7.1
      vertex -3.67467 -0.83478 0
      vertex -3.125 -0.435418 0
    endloop
  endfacet
  facet normal 0.207912 -0.978147 0
    outer loop
      vertex -2.5043 -0.159067 0
      vertex -1.83972 -0.0178041 7.1
      vertex -2.5043 -0.159067 7.1
    endloop
  endfacet
  facet normal 0.207912 -0.978147 0
    outer loop
      vertex -1.83972 -0.0178041 7.1
      vertex -2.5043 -0.159067 0
      vertex -1.83972 -0.0178041 0
    endloop
  endfacet
  facet normal 0.743145 -0.66913 0
    outer loop
      vertex -4.1293 -1.3397 7.1
      vertex -3.67467 -0.83478 0
      vertex -3.67467 -0.83478 7.1
    endloop
  endfacet
  facet normal 0.743145 -0.66913 0
    outer loop
      vertex -3.67467 -0.83478 0
      vertex -4.1293 -1.3397 7.1
      vertex -4.1293 -1.3397 0
    endloop
  endfacet
  facet normal -0.994522 -0.10453 0
    outer loop
      vertex 1.75 -3.25 0
      vertex 1.67898 -2.57429 7.1
      vertex 1.67898 -2.57429 0
    endloop
  endfacet
  facet normal -0.994522 -0.10453 0
    outer loop
      vertex 1.67898 -2.57429 7.1
      vertex 1.75 -3.25 0
      vertex 1.75 -3.25 7.1
    endloop
  endfacet
  facet normal -0.207912 0.978147 0
    outer loop
      vertex -0.495695 -6.34093 0
      vertex -1.16028 -6.4822 7.1
      vertex -0.495695 -6.34093 7.1
    endloop
  endfacet
  facet normal -0.207912 0.978147 0
    outer loop
      vertex -1.16028 -6.4822 7.1
      vertex -0.495695 -6.34093 0
      vertex -1.16028 -6.4822 0
    endloop
  endfacet
  facet normal -0.866025 0.5 0
    outer loop
      vertex 1.1293 -5.1603 0
      vertex 1.46902 -4.57189 7.1
      vertex 1.46902 -4.57189 0
    endloop
  endfacet
  facet normal -0.866025 0.5 0
    outer loop
      vertex 1.46902 -4.57189 7.1
      vertex 1.1293 -5.1603 0
      vertex 1.1293 -5.1603 7.1
    endloop
  endfacet
  facet normal -0.951056 0.309017 0
    outer loop
      vertex 1.46902 -4.57189 0
      vertex 1.67898 -3.92571 7.1
      vertex 1.67898 -3.92571 0
    endloop
  endfacet
  facet normal -0.951056 0.309017 0
    outer loop
      vertex 1.67898 -3.92571 7.1
      vertex 1.46902 -4.57189 0
      vertex 1.46902 -4.57189 7.1
    endloop
  endfacet
  facet normal -0.406736 0.913546 0
    outer loop
      vertex 0.125 -6.06458 0
      vertex -0.495695 -6.34093 7.1
      vertex 0.125 -6.06458 7.1
    endloop
  endfacet
  facet normal -0.406736 0.913546 0
    outer loop
      vertex -0.495695 -6.34093 7.1
      vertex 0.125 -6.06458 0
      vertex -0.495695 -6.34093 0
    endloop
  endfacet
  facet normal -0.587785 0.809017 0
    outer loop
      vertex 0.674674 -5.66522 0
      vertex 0.125 -6.06458 7.1
      vertex 0.674674 -5.66522 7.1
    endloop
  endfacet
  facet normal -0.587785 0.809017 0
    outer loop
      vertex 0.125 -6.06458 7.1
      vertex 0.674674 -5.66522 0
      vertex 0.125 -6.06458 0
    endloop
  endfacet
  facet normal 0.406736 0.913546 -0
    outer loop
      vertex -2.5043 -6.34093 0
      vertex -3.125 -6.06458 7.1
      vertex -2.5043 -6.34093 7.1
    endloop
  endfacet
  facet normal 0.406736 0.913546 0
    outer loop
      vertex -3.125 -6.06458 7.1
      vertex -2.5043 -6.34093 0
      vertex -3.125 -6.06458 0
    endloop
  endfacet
  facet normal 0.743145 0.66913 0
    outer loop
      vertex -3.67467 -5.66522 7.1
      vertex -4.1293 -5.1603 0
      vertex -4.1293 -5.1603 7.1
    endloop
  endfacet
  facet normal 0.743145 0.66913 0
    outer loop
      vertex -4.1293 -5.1603 0
      vertex -3.67467 -5.66522 7.1
      vertex -3.67467 -5.66522 0
    endloop
  endfacet
  facet normal 0.951056 0.309017 0
    outer loop
      vertex -4.46902 -4.57189 7.1
      vertex -4.67898 -3.92571 0
      vertex -4.67898 -3.92571 7.1
    endloop
  endfacet
  facet normal 0.951056 0.309017 0
    outer loop
      vertex -4.67898 -3.92571 0
      vertex -4.46902 -4.57189 7.1
      vertex -4.46902 -4.57189 0
    endloop
  endfacet
  facet normal 0.587785 0.809017 -0
    outer loop
      vertex -3.125 -6.06458 0
      vertex -3.67467 -5.66522 7.1
      vertex -3.125 -6.06458 7.1
    endloop
  endfacet
  facet normal 0.587785 0.809017 0
    outer loop
      vertex -3.67467 -5.66522 7.1
      vertex -3.125 -6.06458 0
      vertex -3.67467 -5.66522 0
    endloop
  endfacet
  facet normal -0.207912 -0.978147 0
    outer loop
      vertex -1.16028 -0.0178041 0
      vertex -0.495695 -0.159067 7.1
      vertex -1.16028 -0.0178041 7.1
    endloop
  endfacet
  facet normal -0.207912 -0.978147 -0
    outer loop
      vertex -0.495695 -0.159067 7.1
      vertex -1.16028 -0.0178041 0
      vertex -0.495695 -0.159067 0
    endloop
  endfacet
  facet normal 0.994522 -0.10453 0
    outer loop
      vertex -4.75 -3.25 7.1
      vertex -4.67898 -2.57429 0
      vertex -4.67898 -2.57429 7.1
    endloop
  endfacet
  facet normal 0.994522 -0.10453 0
    outer loop
      vertex -4.67898 -2.57429 0
      vertex -4.75 -3.25 7.1
      vertex -4.75 -3.25 0
    endloop
  endfacet
  facet normal 0.207912 0.978147 -0
    outer loop
      vertex -1.83972 -6.4822 0
      vertex -2.5043 -6.34093 7.1
      vertex -1.83972 -6.4822 7.1
    endloop
  endfacet
  facet normal 0.207912 0.978147 0
    outer loop
      vertex -2.5043 -6.34093 7.1
      vertex -1.83972 -6.4822 0
      vertex -2.5043 -6.34093 0
    endloop
  endfacet
  facet normal 0.866025 0.5 0
    outer loop
      vertex -4.1293 -5.1603 7.1
      vertex -4.46902 -4.57189 0
      vertex -4.46902 -4.57189 7.1
    endloop
  endfacet
  facet normal 0.866025 0.5 0
    outer loop
      vertex -4.46902 -4.57189 0
      vertex -4.1293 -5.1603 7.1
      vertex -4.1293 -5.1603 0
    endloop
  endfacet
  facet normal -0.866025 -0.5 0
    outer loop
      vertex -3.93227 -29.2163 0
      vertex -4.45491 -28.3111 7.1
      vertex -4.45491 -28.3111 0
    endloop
  endfacet
  facet normal -0.866025 -0.5 0
    outer loop
      vertex -4.45491 -28.3111 7.1
      vertex -3.93227 -29.2163 0
      vertex -3.93227 -29.2163 7.1
    endloop
  endfacet
  facet normal -0.743145 -0.669131 0
    outer loop
      vertex -4.45491 -28.3111 0
      vertex -5.15435 -27.5343 7.1
      vertex -5.15435 -27.5343 0
    endloop
  endfacet
  facet normal -0.743145 -0.669131 0
    outer loop
      vertex -5.15435 -27.5343 7.1
      vertex -4.45491 -28.3111 0
      vertex -4.45491 -28.3111 7.1
    endloop
  endfacet
  facet normal -0.406737 -0.913545 0
    outer loop
      vertex -6.95491 -26.4947 0
      vertex -6 -26.9199 7.1
      vertex -6.95491 -26.4947 7.1
    endloop
  endfacet
  facet normal -0.406737 -0.913545 -0
    outer loop
      vertex -6 -26.9199 7.1
      vertex -6.95491 -26.4947 0
      vertex -6 -26.9199 0
    endloop
  endfacet
  facet normal 0.207912 -0.978148 0
    outer loop
      vertex -10.0451 -26.4947 0
      vertex -9.02264 -26.2774 7.1
      vertex -10.0451 -26.4947 7.1
    endloop
  endfacet
  facet normal 0.207912 -0.978148 0
    outer loop
      vertex -9.02264 -26.2774 7.1
      vertex -10.0451 -26.4947 0
      vertex -9.02264 -26.2774 0
    endloop
  endfacet
  facet normal 0.866025 -0.5 0
    outer loop
      vertex -13.0677 -29.2163 7.1
      vertex -12.5451 -28.3111 0
      vertex -12.5451 -28.3111 7.1
    endloop
  endfacet
  facet normal 0.866025 -0.5 0
    outer loop
      vertex -12.5451 -28.3111 0
      vertex -13.0677 -29.2163 7.1
      vertex -13.0677 -29.2163 0
    endloop
  endfacet
  facet normal -0.994522 0.104528 0
    outer loop
      vertex -3.60926 -32.2896 0
      vertex -3.5 -31.25 7.1
      vertex -3.5 -31.25 0
    endloop
  endfacet
  facet normal -0.994522 0.104528 0
    outer loop
      vertex -3.5 -31.25 7.1
      vertex -3.60926 -32.2896 0
      vertex -3.60926 -32.2896 7.1
    endloop
  endfacet
  facet normal -0.951057 -0.309017 0
    outer loop
      vertex -3.60926 -30.2104 0
      vertex -3.93227 -29.2163 7.1
      vertex -3.93227 -29.2163 0
    endloop
  endfacet
  facet normal -0.951057 -0.309017 0
    outer loop
      vertex -3.93227 -29.2163 7.1
      vertex -3.60926 -30.2104 0
      vertex -3.60926 -30.2104 7.1
    endloop
  endfacet
  facet normal 0 -1 0
    outer loop
      vertex -9.02264 -26.2774 0
      vertex -7.97736 -26.2774 7.1
      vertex -9.02264 -26.2774 7.1
    endloop
  endfacet
  facet normal 0 -1 -0
    outer loop
      vertex -7.97736 -26.2774 7.1
      vertex -9.02264 -26.2774 0
      vertex -7.97736 -26.2774 0
    endloop
  endfacet
  facet normal -0.587785 -0.809017 0
    outer loop
      vertex -6 -26.9199 0
      vertex -5.15435 -27.5343 7.1
      vertex -6 -26.9199 7.1
    endloop
  endfacet
  facet normal -0.587785 -0.809017 -0
    outer loop
      vertex -5.15435 -27.5343 7.1
      vertex -6 -26.9199 0
      vertex -5.15435 -27.5343 0
    endloop
  endfacet
  facet normal 0.994522 -0.104529 0
    outer loop
      vertex -13.5 -31.25 7.1
      vertex -13.3907 -30.2104 0
      vertex -13.3907 -30.2104 7.1
    endloop
  endfacet
  facet normal 0.994522 -0.104529 0
    outer loop
      vertex -13.3907 -30.2104 0
      vertex -13.5 -31.25 7.1
      vertex -13.5 -31.25 0
    endloop
  endfacet
  facet normal 0.743145 -0.669131 0
    outer loop
      vertex -12.5451 -28.3111 7.1
      vertex -11.8457 -27.5343 0
      vertex -11.8457 -27.5343 7.1
    endloop
  endfacet
  facet normal 0.743145 -0.669131 0
    outer loop
      vertex -11.8457 -27.5343 0
      vertex -12.5451 -28.3111 7.1
      vertex -12.5451 -28.3111 0
    endloop
  endfacet
  facet normal 0.406737 -0.913545 0
    outer loop
      vertex -11 -26.9199 0
      vertex -10.0451 -26.4947 7.1
      vertex -11 -26.9199 7.1
    endloop
  endfacet
  facet normal 0.406737 -0.913545 0
    outer loop
      vertex -10.0451 -26.4947 7.1
      vertex -11 -26.9199 0
      vertex -10.0451 -26.4947 0
    endloop
  endfacet
  facet normal 0.587785 -0.809017 0
    outer loop
      vertex -11.8457 -27.5343 0
      vertex -11 -26.9199 7.1
      vertex -11.8457 -27.5343 7.1
    endloop
  endfacet
  facet normal 0.587785 -0.809017 0
    outer loop
      vertex -11 -26.9199 7.1
      vertex -11.8457 -27.5343 0
      vertex -11 -26.9199 0
    endloop
  endfacet
  facet normal -0.994522 -0.104528 0
    outer loop
      vertex -3.5 -31.25 0
      vertex -3.60926 -30.2104 7.1
      vertex -3.60926 -30.2104 0
    endloop
  endfacet
  facet normal -0.994522 -0.104528 0
    outer loop
      vertex -3.60926 -30.2104 7.1
      vertex -3.5 -31.25 0
      vertex -3.5 -31.25 7.1
    endloop
  endfacet
  facet normal -0.951057 0.309017 0
    outer loop
      vertex -3.93227 -33.2837 0
      vertex -3.60926 -32.2896 7.1
      vertex -3.60926 -32.2896 0
    endloop
  endfacet
  facet normal -0.951057 0.309017 0
    outer loop
      vertex -3.60926 -32.2896 7.1
      vertex -3.93227 -33.2837 0
      vertex -3.93227 -33.2837 7.1
    endloop
  endfacet
  facet normal 0.866025 0.5 0
    outer loop
      vertex -12.5451 -34.1889 7.1
      vertex -13.0677 -33.2837 0
      vertex -13.0677 -33.2837 7.1
    endloop
  endfacet
  facet normal 0.866025 0.5 0
    outer loop
      vertex -13.0677 -33.2837 0
      vertex -12.5451 -34.1889 7.1
      vertex -12.5451 -34.1889 0
    endloop
  endfacet
  facet normal -0.207912 -0.978148 0
    outer loop
      vertex -7.97736 -26.2774 0
      vertex -6.95491 -26.4947 7.1
      vertex -7.97736 -26.2774 7.1
    endloop
  endfacet
  facet normal -0.207912 -0.978148 -0
    outer loop
      vertex -6.95491 -26.4947 7.1
      vertex -7.97736 -26.2774 0
      vertex -6.95491 -26.4947 0
    endloop
  endfacet
  facet normal 0.951057 -0.309017 0
    outer loop
      vertex -13.3907 -30.2104 7.1
      vertex -13.0677 -29.2163 0
      vertex -13.0677 -29.2163 7.1
    endloop
  endfacet
  facet normal 0.951057 -0.309017 0
    outer loop
      vertex -13.0677 -29.2163 0
      vertex -13.3907 -30.2104 7.1
      vertex -13.3907 -30.2104 0
    endloop
  endfacet
  facet normal 0.994522 0.104529 0
    outer loop
      vertex -13.3907 -32.2896 7.1
      vertex -13.5 -31.25 0
      vertex -13.5 -31.25 7.1
    endloop
  endfacet
  facet normal 0.994522 0.104529 0
    outer loop
      vertex -13.5 -31.25 0
      vertex -13.3907 -32.2896 7.1
      vertex -13.3907 -32.2896 0
    endloop
  endfacet
  facet normal -0.207912 0.978148 0
    outer loop
      vertex -6.95491 -36.0053 0
      vertex -7.97736 -36.2226 7.1
      vertex -6.95491 -36.0053 7.1
    endloop
  endfacet
  facet normal -0.207912 0.978148 0
    outer loop
      vertex -7.97736 -36.2226 7.1
      vertex -6.95491 -36.0053 0
      vertex -7.97736 -36.2226 0
    endloop
  endfacet
  facet normal -0.406737 0.913545 0
    outer loop
      vertex -6 -35.5801 0
      vertex -6.95491 -36.0053 7.1
      vertex -6 -35.5801 7.1
    endloop
  endfacet
  facet normal -0.406737 0.913545 0
    outer loop
      vertex -6.95491 -36.0053 7.1
      vertex -6 -35.5801 0
      vertex -6.95491 -36.0053 0
    endloop
  endfacet
  facet normal -0.743145 0.669131 0
    outer loop
      vertex -5.15435 -34.9657 0
      vertex -4.45491 -34.1889 7.1
      vertex -4.45491 -34.1889 0
    endloop
  endfacet
  facet normal -0.743145 0.669131 0
    outer loop
      vertex -4.45491 -34.1889 7.1
      vertex -5.15435 -34.9657 0
      vertex -5.15435 -34.9657 7.1
    endloop
  endfacet
  facet normal -0.587785 0.809017 0
    outer loop
      vertex -5.15435 -34.9657 0
      vertex -6 -35.5801 7.1
      vertex -5.15435 -34.9657 7.1
    endloop
  endfacet
  facet normal -0.587785 0.809017 0
    outer loop
      vertex -6 -35.5801 7.1
      vertex -5.15435 -34.9657 0
      vertex -6 -35.5801 0
    endloop
  endfacet
  facet normal -0.866025 0.5 0
    outer loop
      vertex -4.45491 -34.1889 0
      vertex -3.93227 -33.2837 7.1
      vertex -3.93227 -33.2837 0
    endloop
  endfacet
  facet normal -0.866025 0.5 0
    outer loop
      vertex -3.93227 -33.2837 7.1
      vertex -4.45491 -34.1889 0
      vertex -4.45491 -34.1889 7.1
    endloop
  endfacet
  facet normal 0.207912 0.978148 -0
    outer loop
      vertex -9.02264 -36.2226 0
      vertex -10.0451 -36.0053 7.1
      vertex -9.02264 -36.2226 7.1
    endloop
  endfacet
  facet normal 0.207912 0.978148 0
    outer loop
      vertex -10.0451 -36.0053 7.1
      vertex -9.02264 -36.2226 0
      vertex -10.0451 -36.0053 0
    endloop
  endfacet
  facet normal 0 1 -0
    outer loop
      vertex -7.97736 -36.2226 0
      vertex -9.02264 -36.2226 7.1
      vertex -7.97736 -36.2226 7.1
    endloop
  endfacet
  facet normal 0 1 0
    outer loop
      vertex -9.02264 -36.2226 7.1
      vertex -7.97736 -36.2226 0
      vertex -9.02264 -36.2226 0
    endloop
  endfacet
  facet normal 0.951057 0.309017 0
    outer loop
      vertex -13.0677 -33.2837 7.1
      vertex -13.3907 -32.2896 0
      vertex -13.3907 -32.2896 7.1
    endloop
  endfacet
  facet normal 0.951057 0.309017 0
    outer loop
      vertex -13.3907 -32.2896 0
      vertex -13.0677 -33.2837 7.1
      vertex -13.0677 -33.2837 0
    endloop
  endfacet
  facet normal 0.743145 0.669131 0
    outer loop
      vertex -11.8457 -34.9657 7.1
      vertex -12.5451 -34.1889 0
      vertex -12.5451 -34.1889 7.1
    endloop
  endfacet
  facet normal 0.743145 0.669131 0
    outer loop
      vertex -12.5451 -34.1889 0
      vertex -11.8457 -34.9657 7.1
      vertex -11.8457 -34.9657 0
    endloop
  endfacet
  facet normal 0.406737 0.913545 -0
    outer loop
      vertex -10.0451 -36.0053 0
      vertex -11 -35.5801 7.1
      vertex -10.0451 -36.0053 7.1
    endloop
  endfacet
  facet normal 0.406737 0.913545 0
    outer loop
      vertex -11 -35.5801 7.1
      vertex -10.0451 -36.0053 0
      vertex -11 -35.5801 0
    endloop
  endfacet
  facet normal 0.587785 0.809017 -0
    outer loop
      vertex -11 -35.5801 0
      vertex -11.8457 -34.9657 7.1
      vertex -11 -35.5801 7.1
    endloop
  endfacet
  facet normal 0.587785 0.809017 0
    outer loop
      vertex -11.8457 -34.9657 7.1
      vertex -11 -35.5801 0
      vertex -11.8457 -34.9657 0
    endloop
  endfacet
  facet normal -1 0 0
    outer loop
      vertex -26.35 -48.5 11
      vertex -26.35 29.6617 10.5796
      vertex -26.35 -48.5 10.5796
    endloop
  endfacet
  facet normal -1 0 0
    outer loop
      vertex -26.35 29.6617 10.5796
      vertex -26.35 -48.5 11
      vertex -26.35 30.0776 11
    endloop
  endfacet
  facet normal -0 0 1
    outer loop
      vertex -26.35 30.0776 11
      vertex -20.15 7.538 11
      vertex -20.15 41.5 11
    endloop
  endfacet
  facet normal 0 0 1
    outer loop
      vertex -20.15 7.538 11
      vertex -26.35 30.0776 11
      vertex -20.2421 7.45511 11
    endloop
  endfacet
  facet normal 0 0 1
    outer loop
      vertex -26.35 30.0776 11
      vertex -20.15 41.5 11
      vertex -23.3718 39.2435 11
    endloop
  endfacet
  facet normal 0 0 1
    outer loop
      vertex -23.3718 39.2435 11
      vertex -20.15 41.5 11
      vertex -22.6387 41.5 11
    endloop
  endfacet
  facet normal 0 0 1
    outer loop
      vertex -20.2421 7.45511 11
      vertex -13.1 -0.6 11
      vertex -12.9892 -0.6 11
    endloop
  endfacet
  facet normal 0 0 1
    outer loop
      vertex -22.6 -6.5 11
      vertex -13.1 -0.6 11
      vertex -20.2421 7.45511 11
    endloop
  endfacet
  facet normal 0 0 1
    outer loop
      vertex -13.1 -0.6 11
      vertex -22.6 -6.5 11
      vertex -13.1 -6.5 11
    endloop
  endfacet
  facet normal -0 0 1
    outer loop
      vertex -22.6 -45.5 11
      vertex 13.15 -48.5 11
      vertex 13.15 -45.5 11
    endloop
  endfacet
  facet normal 0 0 1
    outer loop
      vertex -20.2421 7.45511 11
      vertex -26.35 30.0776 11
      vertex -22.6 -6.5 11
    endloop
  endfacet
  facet normal 0 0 1
    outer loop
      vertex -26.35 -48.5 11
      vertex -22.6 -6.5 11
      vertex -26.35 30.0776 11
    endloop
  endfacet
  facet normal 0 0 1
    outer loop
      vertex -22.6 -45.5 11
      vertex -26.35 -48.5 11
      vertex 13.15 -48.5 11
    endloop
  endfacet
  facet normal 0 0 1
    outer loop
      vertex -22.6 -6.5 11
      vertex -26.35 -48.5 11
      vertex -22.6 -45.5 11
    endloop
  endfacet
  facet normal 0 0 1
    outer loop
      vertex 23.65 -48.5 11
      vertex 17.9 -0.6 11
      vertex 17.95 -40 11
    endloop
  endfacet
  facet normal 0 0 1
    outer loop
      vertex 23.65 30.0776 11
      vertex 13.0837 -0.6 11
      vertex 17.9 -0.6 11
    endloop
  endfacet
  facet normal 0 0 1
    outer loop
      vertex 18.2529 41.5 11
      vertex 23.65 30.0776 11
      vertex 20.6718 39.2435 11
    endloop
  endfacet
  facet normal -0 0 1
    outer loop
      vertex 18.2529 41.5 11
      vertex 20.6718 39.2435 11
      vertex 19.9387 41.5 11
    endloop
  endfacet
  facet normal 0 0 1
    outer loop
      vertex 13.0837 -0.6 11
      vertex 23.65 30.0776 11
      vertex 18.2529 41.5 11
    endloop
  endfacet
  facet normal -0 0 1
    outer loop
      vertex 17.9 -0.6 11
      vertex 23.65 -48.5 11
      vertex 23.65 30.0776 11
    endloop
  endfacet
  facet normal 0 0 1
    outer loop
      vertex 23.65 -48.5 11
      vertex 17.95 -40 11
      vertex 17.95 -48.5 11
    endloop
  endfacet
  facet normal 0 0 1
    outer loop
      vertex 17.95 -40 11
      vertex 17.9 -0.6 11
      vertex 17.9 -40 11
    endloop
  endfacet
  facet normal 1 -0 0
    outer loop
      vertex 23.65 -48.5 11
      vertex 23.65 29.6617 10.5796
      vertex 23.65 30.0776 11
    endloop
  endfacet
  facet normal 1 0 0
    outer loop
      vertex 23.65 29.6617 10.5796
      vertex 23.65 -48.5 11
      vertex 23.65 -48.5 10.5796
    endloop
  endfacet
  facet normal 0 0 -1
    outer loop
      vertex 1.75 -3.25 0
      vertex 19.85 35.0495 0
      vertex 19.85 -48.5 0
    endloop
  endfacet
  facet normal 0 0 -1
    outer loop
      vertex 1.67898 -2.57429 0
      vertex 19.85 35.0495 0
      vertex 1.75 -3.25 0
    endloop
  endfacet
  facet normal 0 0 -1
    outer loop
      vertex 3.39074 19.7896 0
      vertex 19.85 35.0495 0
      vertex 3.5 18.75 0
    endloop
  endfacet
  facet normal 0 -0 -1
    outer loop
      vertex 3.5 18.75 0
      vertex 19.85 35.0495 0
      vertex 3.39074 17.7104 0
    endloop
  endfacet
  facet normal 0 -0 -1
    outer loop
      vertex 3.06773 16.7163 0
      vertex 19.85 35.0495 0
      vertex 1.67898 -2.57429 0
    endloop
  endfacet
  facet normal 0 0 -1
    outer loop
      vertex 19.85 35.0495 0
      vertex 3.06773 16.7163 0
      vertex 3.39074 17.7104 0
    endloop
  endfacet
  facet normal 0 0 -1
    outer loop
      vertex 1.46902 -1.92811 0
      vertex 3.06773 16.7163 0
      vertex 1.67898 -2.57429 0
    endloop
  endfacet
  facet normal 0 0 -1
    outer loop
      vertex 19.85 -48.5 0
      vertex 1.67898 -3.92571 0
      vertex 1.75 -3.25 0
    endloop
  endfacet
  facet normal 0 0 -1
    outer loop
      vertex 19.85 -48.5 0
      vertex 1.46902 -4.57189 0
      vertex 1.67898 -3.92571 0
    endloop
  endfacet
  facet normal 0 0 -1
    outer loop
      vertex 19.85 -48.5 0
      vertex 1.1293 -5.1603 0
      vertex 1.46902 -4.57189 0
    endloop
  endfacet
  facet normal 0 0 -1
    outer loop
      vertex -3.60926 -30.2104 0
      vertex 1.1293 -5.1603 0
      vertex 19.85 -48.5 0
    endloop
  endfacet
  facet normal 0 0 -1
    outer loop
      vertex -3.93227 -29.2163 0
      vertex 1.1293 -5.1603 0
      vertex -3.60926 -30.2104 0
    endloop
  endfacet
  facet normal 0 0 -1
    outer loop
      vertex 1.1293 -5.1603 0
      vertex -3.93227 -29.2163 0
      vertex 0.674674 -5.66522 0
    endloop
  endfacet
  facet normal 0 0 -1
    outer loop
      vertex 0.674674 -5.66522 0
      vertex -4.45491 -28.3111 0
      vertex 0.125 -6.06458 0
    endloop
  endfacet
  facet normal 0 0 -1
    outer loop
      vertex 0.125 -6.06458 0
      vertex -4.45491 -28.3111 0
      vertex -0.495695 -6.34093 0
    endloop
  endfacet
  facet normal 0 0 -1
    outer loop
      vertex -5.15435 -27.5343 0
      vertex -0.495695 -6.34093 0
      vertex -4.45491 -28.3111 0
    endloop
  endfacet
  facet normal 0 0 -1
    outer loop
      vertex -0.495695 -6.34093 0
      vertex -5.15435 -27.5343 0
      vertex -1.16028 -6.4822 0
    endloop
  endfacet
  facet normal 0 0 -1
    outer loop
      vertex -3.60926 -30.2104 0
      vertex 19.85 -48.5 0
      vertex -3.5 -31.25 0
    endloop
  endfacet
  facet normal 0 0 -1
    outer loop
      vertex 19.85 -48.5 0
      vertex -3.60926 -32.2896 0
      vertex -3.5 -31.25 0
    endloop
  endfacet
  facet normal 0 0 -1
    outer loop
      vertex 19.85 -48.5 0
      vertex -3.93227 -33.2837 0
      vertex -3.60926 -32.2896 0
    endloop
  endfacet
  facet normal 0 0 -1
    outer loop
      vertex 19.85 -48.5 0
      vertex -4.45491 -34.1889 0
      vertex -3.93227 -33.2837 0
    endloop
  endfacet
  facet normal 0 0 -1
    outer loop
      vertex 19.85 -48.5 0
      vertex -5.15435 -34.9657 0
      vertex -4.45491 -34.1889 0
    endloop
  endfacet
  facet normal 0 0 -1
    outer loop
      vertex 19.85 -48.5 0
      vertex -6 -35.5801 0
      vertex -5.15435 -34.9657 0
    endloop
  endfacet
  facet normal 0 0 -1
    outer loop
      vertex 19.85 -48.5 0
      vertex -6.95491 -36.0053 0
      vertex -6 -35.5801 0
    endloop
  endfacet
  facet normal 0 0 -1
    outer loop
      vertex -22.55 -48.5 0
      vertex -6.95491 -36.0053 0
      vertex 19.85 -48.5 0
    endloop
  endfacet
  facet normal 0 0 -1
    outer loop
      vertex -6.95491 -36.0053 0
      vertex -22.55 -48.5 0
      vertex -7.97736 -36.2226 0
    endloop
  endfacet
  facet normal -0 0 -1
    outer loop
      vertex -7.97736 -36.2226 0
      vertex -22.55 -48.5 0
      vertex -9.02264 -36.2226 0
    endloop
  endfacet
  facet normal -0 0 -1
    outer loop
      vertex -9.02264 -36.2226 0
      vertex -22.55 -48.5 0
      vertex -10.0451 -36.0053 0
    endloop
  endfacet
  facet normal 0 0 -1
    outer loop
      vertex -22.55 -48.5 0
      vertex -11 -35.5801 0
      vertex -10.0451 -36.0053 0
    endloop
  endfacet
  facet normal 0 0 -1
    outer loop
      vertex -22.55 -48.5 0
      vertex -11.8457 -34.9657 0
      vertex -11 -35.5801 0
    endloop
  endfacet
  facet normal 0 0 -1
    outer loop
      vertex -22.55 -48.5 0
      vertex -12.5451 -34.1889 0
      vertex -11.8457 -34.9657 0
    endloop
  endfacet
  facet normal 0 0 -1
    outer loop
      vertex -22.55 -48.5 0
      vertex -13.0677 -33.2837 0
      vertex -12.5451 -34.1889 0
    endloop
  endfacet
  facet normal 0 0 -1
    outer loop
      vertex -22.55 -48.5 0
      vertex -13.3907 -32.2896 0
      vertex -13.0677 -33.2837 0
    endloop
  endfacet
  facet normal 0 0 -1
    outer loop
      vertex -22.55 -48.5 0
      vertex -13.5 -31.25 0
      vertex -13.3907 -32.2896 0
    endloop
  endfacet
  facet normal 0 0 -1
    outer loop
      vertex -22.55 35.0495 0
      vertex -13.0677 -29.2163 0
      vertex -22.55 -48.5 0
    endloop
  endfacet
  facet normal 0 0 -1
    outer loop
      vertex -13.0677 -29.2163 0
      vertex -22.55 35.0495 0
      vertex -20.3289 41.5 0
    endloop
  endfacet
  facet normal 0 0 -1
    outer loop
      vertex 3.06773 20.7837 0
      vertex 19.85 35.0495 0
      vertex 3.39074 19.7896 0
    endloop
  endfacet
  facet normal 0 0 -1
    outer loop
      vertex 2.54508 21.6889 0
      vertex 19.85 35.0495 0
      vertex 3.06773 20.7837 0
    endloop
  endfacet
  facet normal 0 0 -1
    outer loop
      vertex 1.84565 22.4657 0
      vertex 19.85 35.0495 0
      vertex 2.54508 21.6889 0
    endloop
  endfacet
  facet normal 0 0 -1
    outer loop
      vertex 1 23.0801 0
      vertex 19.85 35.0495 0
      vertex 1.84565 22.4657 0
    endloop
  endfacet
  facet normal -0 0 -1
    outer loop
      vertex 19.85 35.0495 0
      vertex 1 23.0801 0
      vertex 17.6289 41.5 0
    endloop
  endfacet
  facet normal 0 0 -1
    outer loop
      vertex 0.045085 23.5053 0
      vertex 17.6289 41.5 0
      vertex 1 23.0801 0
    endloop
  endfacet
  facet normal 0 0 -1
    outer loop
      vertex -0.977358 23.7226 0
      vertex 17.6289 41.5 0
      vertex 0.045085 23.5053 0
    endloop
  endfacet
  facet normal 0 0 -1
    outer loop
      vertex -2.02264 23.7226 0
      vertex 17.6289 41.5 0
      vertex -0.977358 23.7226 0
    endloop
  endfacet
  facet normal 0 0 -1
    outer loop
      vertex -20.3289 41.5 0
      vertex -2.02264 23.7226 0
      vertex -3.04508 23.5053 0
    endloop
  endfacet
  facet normal 0 0 -1
    outer loop
      vertex -20.3289 41.5 0
      vertex -3.04508 23.5053 0
      vertex -4 23.0801 0
    endloop
  endfacet
  facet normal 0 0 -1
    outer loop
      vertex -20.3289 41.5 0
      vertex -4 23.0801 0
      vertex -4.84565 22.4657 0
    endloop
  endfacet
  facet normal 0 0 -1
    outer loop
      vertex -11.8457 -27.5343 0
      vertex -4.46902 -4.57189 0
      vertex -11 -26.9199 0
    endloop
  endfacet
  facet normal -0 0 -1
    outer loop
      vertex -4.46902 -4.57189 0
      vertex -11.8457 -27.5343 0
      vertex -4.67898 -3.92571 0
    endloop
  endfacet
  facet normal 0 0 -1
    outer loop
      vertex -12.5451 -28.3111 0
      vertex -4.67898 -3.92571 0
      vertex -11.8457 -27.5343 0
    endloop
  endfacet
  facet normal -0 0 -1
    outer loop
      vertex -4.67898 -3.92571 0
      vertex -12.5451 -28.3111 0
      vertex -4.75 -3.25 0
    endloop
  endfacet
  facet normal 0 0 -1
    outer loop
      vertex -20.3289 41.5 0
      vertex -4.75 -3.25 0
      vertex -12.5451 -28.3111 0
    endloop
  endfacet
  facet normal 0 0 -1
    outer loop
      vertex -4.75 -3.25 0
      vertex -20.3289 41.5 0
      vertex -6.39074 17.7104 0
    endloop
  endfacet
  facet normal 0 0 -1
    outer loop
      vertex -6.39074 17.7104 0
      vertex -20.3289 41.5 0
      vertex -6.5 18.75 0
    endloop
  endfacet
  facet normal 0 0 -1
    outer loop
      vertex -20.3289 41.5 0
      vertex -12.5451 -28.3111 0
      vertex -13.0677 -29.2163 0
    endloop
  endfacet
  facet normal 0 0 -1
    outer loop
      vertex -22.55 -48.5 0
      vertex -13.0677 -29.2163 0
      vertex -13.3907 -30.2104 0
    endloop
  endfacet
  facet normal 0 0 -1
    outer loop
      vertex -2.02264 23.7226 0
      vertex -20.3289 41.5 0
      vertex 17.6289 41.5 0
    endloop
  endfacet
  facet normal 0 0 -1
    outer loop
      vertex -5.54508 21.6889 0
      vertex -20.3289 41.5 0
      vertex -4.84565 22.4657 0
    endloop
  endfacet
  facet normal 0 0 -1
    outer loop
      vertex -6.06773 20.7837 0
      vertex -20.3289 41.5 0
      vertex -5.54508 21.6889 0
    endloop
  endfacet
  facet normal 0 0 -1
    outer loop
      vertex -6.39074 19.7896 0
      vertex -20.3289 41.5 0
      vertex -6.06773 20.7837 0
    endloop
  endfacet
  facet normal 0 0 -1
    outer loop
      vertex -6.5 18.75 0
      vertex -20.3289 41.5 0
      vertex -6.39074 19.7896 0
    endloop
  endfacet
  facet normal 0 0 -1
    outer loop
      vertex -22.55 -48.5 0
      vertex -13.3907 -30.2104 0
      vertex -13.5 -31.25 0
    endloop
  endfacet
  facet normal 0 0 -1
    outer loop
      vertex 3.06773 16.7163 0
      vertex 1.46902 -1.92811 0
      vertex 2.54508 15.8111 0
    endloop
  endfacet
  facet normal 0 0 -1
    outer loop
      vertex 1.1293 -1.3397 0
      vertex 2.54508 15.8111 0
      vertex 1.46902 -1.92811 0
    endloop
  endfacet
  facet normal 0 0 -1
    outer loop
      vertex 2.54508 15.8111 0
      vertex 1.1293 -1.3397 0
      vertex 1.84565 15.0343 0
    endloop
  endfacet
  facet normal 0 0 -1
    outer loop
      vertex 0.674674 -0.83478 0
      vertex 1.84565 15.0343 0
      vertex 1.1293 -1.3397 0
    endloop
  endfacet
  facet normal 0 0 -1
    outer loop
      vertex 1.84565 15.0343 0
      vertex 0.674674 -0.83478 0
      vertex 1 14.4199 0
    endloop
  endfacet
  facet normal 0 0 -1
    outer loop
      vertex 0.125 -0.435418 0
      vertex 1 14.4199 0
      vertex 0.674674 -0.83478 0
    endloop
  endfacet
  facet normal 0 0 -1
    outer loop
      vertex 0.125 -0.435418 0
      vertex 0.045085 13.9947 0
      vertex 1 14.4199 0
    endloop
  endfacet
  facet normal 0 0 -1
    outer loop
      vertex -0.495695 -0.159067 0
      vertex 0.045085 13.9947 0
      vertex 0.125 -0.435418 0
    endloop
  endfacet
  facet normal 0 0 -1
    outer loop
      vertex -0.495695 -0.159067 0
      vertex -0.977358 13.7774 0
      vertex 0.045085 13.9947 0
    endloop
  endfacet
  facet normal 0 0 -1
    outer loop
      vertex -1.16028 -0.0178041 0
      vertex -0.977358 13.7774 0
      vertex -0.495695 -0.159067 0
    endloop
  endfacet
  facet normal 0 0 -1
    outer loop
      vertex -1.83972 -0.0178041 0
      vertex -0.977358 13.7774 0
      vertex -1.16028 -0.0178041 0
    endloop
  endfacet
  facet normal 0 0 -1
    outer loop
      vertex -1.83972 -0.0178041 0
      vertex -2.02264 13.7774 0
      vertex -0.977358 13.7774 0
    endloop
  endfacet
  facet normal 0 0 -1
    outer loop
      vertex -2.5043 -0.159067 0
      vertex -2.02264 13.7774 0
      vertex -1.83972 -0.0178041 0
    endloop
  endfacet
  facet normal 0 0 -1
    outer loop
      vertex -2.5043 -0.159067 0
      vertex -3.04508 13.9947 0
      vertex -2.02264 13.7774 0
    endloop
  endfacet
  facet normal 0 0 -1
    outer loop
      vertex -3.125 -0.435418 0
      vertex -3.04508 13.9947 0
      vertex -2.5043 -0.159067 0
    endloop
  endfacet
  facet normal 0 0 -1
    outer loop
      vertex -4 14.4199 0
      vertex -3.125 -0.435418 0
      vertex -3.67467 -0.83478 0
    endloop
  endfacet
  facet normal 0 0 -1
    outer loop
      vertex -3.125 -0.435418 0
      vertex -4 14.4199 0
      vertex -3.04508 13.9947 0
    endloop
  endfacet
  facet normal 0 0 -1
    outer loop
      vertex -4.84565 15.0343 0
      vertex -3.67467 -0.83478 0
      vertex -4.1293 -1.3397 0
    endloop
  endfacet
  facet normal 0 0 -1
    outer loop
      vertex -5.54508 15.8111 0
      vertex -4.1293 -1.3397 0
      vertex -4.46902 -1.92811 0
    endloop
  endfacet
  facet normal 0 0 -1
    outer loop
      vertex -6.06773 16.7163 0
      vertex -4.46902 -1.92811 0
      vertex -4.67898 -2.57429 0
    endloop
  endfacet
  facet normal 0 0 -1
    outer loop
      vertex -6.39074 17.7104 0
      vertex -4.67898 -2.57429 0
      vertex -4.75 -3.25 0
    endloop
  endfacet
  facet normal 0 0 -1
    outer loop
      vertex -3.67467 -0.83478 0
      vertex -4.84565 15.0343 0
      vertex -4 14.4199 0
    endloop
  endfacet
  facet normal 0 0 -1
    outer loop
      vertex -4.45491 -28.3111 0
      vertex 0.674674 -5.66522 0
      vertex -3.93227 -29.2163 0
    endloop
  endfacet
  facet normal 0 0 -1
    outer loop
      vertex -6 -26.9199 0
      vertex -1.16028 -6.4822 0
      vertex -5.15435 -27.5343 0
    endloop
  endfacet
  facet normal -0 0 -1
    outer loop
      vertex -1.16028 -6.4822 0
      vertex -6 -26.9199 0
      vertex -1.83972 -6.4822 0
    endloop
  endfacet
  facet normal 0 0 -1
    outer loop
      vertex -6.95491 -26.4947 0
      vertex -1.83972 -6.4822 0
      vertex -6 -26.9199 0
    endloop
  endfacet
  facet normal -0 0 -1
    outer loop
      vertex -1.83972 -6.4822 0
      vertex -6.95491 -26.4947 0
      vertex -2.5043 -6.34093 0
    endloop
  endfacet
  facet normal 0 0 -1
    outer loop
      vertex -7.97736 -26.2774 0
      vertex -2.5043 -6.34093 0
      vertex -6.95491 -26.4947 0
    endloop
  endfacet
  facet normal -0 0 -1
    outer loop
      vertex -2.5043 -6.34093 0
      vertex -7.97736 -26.2774 0
      vertex -3.125 -6.06458 0
    endloop
  endfacet
  facet normal 0 0 -1
    outer loop
      vertex -9.02264 -26.2774 0
      vertex -3.125 -6.06458 0
      vertex -7.97736 -26.2774 0
    endloop
  endfacet
  facet normal -0 0 -1
    outer loop
      vertex -3.125 -6.06458 0
      vertex -9.02264 -26.2774 0
      vertex -3.67467 -5.66522 0
    endloop
  endfacet
  facet normal 0 0 -1
    outer loop
      vertex -10.0451 -26.4947 0
      vertex -3.67467 -5.66522 0
      vertex -9.02264 -26.2774 0
    endloop
  endfacet
  facet normal -0 0 -1
    outer loop
      vertex -3.67467 -5.66522 0
      vertex -10.0451 -26.4947 0
      vertex -4.1293 -5.1603 0
    endloop
  endfacet
  facet normal 0 0 -1
    outer loop
      vertex -11 -26.9199 0
      vertex -4.1293 -5.1603 0
      vertex -10.0451 -26.4947 0
    endloop
  endfacet
  facet normal 0 0 -1
    outer loop
      vertex -4.1293 -1.3397 0
      vertex -5.54508 15.8111 0
      vertex -4.84565 15.0343 0
    endloop
  endfacet
  facet normal 0 0 -1
    outer loop
      vertex -4.46902 -1.92811 0
      vertex -6.06773 16.7163 0
      vertex -5.54508 15.8111 0
    endloop
  endfacet
  facet normal 0 0 -1
    outer loop
      vertex -4.67898 -2.57429 0
      vertex -6.39074 17.7104 0
      vertex -6.06773 16.7163 0
    endloop
  endfacet
  facet normal -0 0 -1
    outer loop
      vertex -4.1293 -5.1603 0
      vertex -11 -26.9199 0
      vertex -4.46902 -4.57189 0
    endloop
  endfacet
  facet normal 0 -1 0
    outer loop
      vertex -22.468 -48.5 3.57633
      vertex -26.35 -48.5 11
      vertex -26.35 -48.5 10.5796
    endloop
  endfacet
  facet normal 0 -1 0
    outer loop
      vertex -26.35 -48.5 11
      vertex -22.468 -48.5 3.57633
      vertex 13.15 -48.5 11
    endloop
  endfacet
  facet normal 0 -1 0
    outer loop
      vertex -22.55 -48.5 0
      vertex 13.15 -48.5 7.1
      vertex -22.468 -48.5 3.57633
    endloop
  endfacet
  facet normal 0 -1 -0
    outer loop
      vertex 13.15 -48.5 11
      vertex -22.468 -48.5 3.57633
      vertex 13.15 -48.5 7.1
    endloop
  endfacet
  facet normal 0 -1 0
    outer loop
      vertex 17.95 -48.5 11
      vertex 23.65 -48.5 10.5796
      vertex 23.65 -48.5 11
    endloop
  endfacet
  facet normal 0 -1 0
    outer loop
      vertex 17.95 -48.5 7.1
      vertex 23.65 -48.5 10.5796
      vertex 17.95 -48.5 11
    endloop
  endfacet
  facet normal 0 -1 0
    outer loop
      vertex 17.95 -48.5 7.1
      vertex 19.768 -48.5 3.57633
      vertex 23.65 -48.5 10.5796
    endloop
  endfacet
  facet normal 0 -1 0
    outer loop
      vertex 19.85 -48.5 0
      vertex 13.15 -48.5 7.1
      vertex -22.55 -48.5 0
    endloop
  endfacet
  facet normal 0 -1 0
    outer loop
      vertex -22.55 -48.5 0
      vertex -22.468 -48.5 3.57633
      vertex -22.55 -48.5 3.5309
    endloop
  endfacet
  facet normal -0 -1 -0
    outer loop
      vertex 19.768 -48.5 3.57633
      vertex 13.15 -48.5 7.1
      vertex 19.85 -48.5 0
    endloop
  endfacet
  facet normal 0 -1 0
    outer loop
      vertex 13.15 -48.5 7.1
      vertex 19.768 -48.5 3.57633
      vertex 17.95 -48.5 7.1
    endloop
  endfacet
  facet normal 0 -1 0
    outer loop
      vertex 19.768 -48.5 3.57633
      vertex 19.85 -48.5 0
      vertex 19.85 -48.5 3.5309
    endloop
  endfacet
  facet normal 0 1 0
    outer loop
      vertex 19.9387 41.5 11
      vertex 18.2529 41.5 7.1
      vertex 18.2529 41.5 11
    endloop
  endfacet
  facet normal 0 1 0
    outer loop
      vertex 18.2529 41.5 7.1
      vertex 17.562 41.5 3.60673
      vertex -20.15 41.5 7.1
    endloop
  endfacet
  facet normal 0 1 0
    outer loop
      vertex 17.562 41.5 3.60673
      vertex 18.2529 41.5 7.1
      vertex 19.9387 41.5 11
    endloop
  endfacet
  facet normal 0 1 -0
    outer loop
      vertex -20.15 41.5 7.1
      vertex -22.6387 41.5 11
      vertex -20.15 41.5 11
    endloop
  endfacet
  facet normal 0 1 0
    outer loop
      vertex -20.15 41.5 7.1
      vertex -20.262 41.5 3.60673
      vertex -22.6387 41.5 11
    endloop
  endfacet
  facet normal 0 1 0
    outer loop
      vertex 17.562 41.5 3.60673
      vertex -20.262 41.5 3.60673
      vertex -20.15 41.5 7.1
    endloop
  endfacet
  facet normal 0 1 -0
    outer loop
      vertex 17.6289 41.5 0
      vertex 17.562 41.5 3.60673
      vertex 17.6289 41.5 3.58576
    endloop
  endfacet
  facet normal 0 1 0
    outer loop
      vertex 17.562 41.5 3.60673
      vertex 17.6289 41.5 0
      vertex -20.262 41.5 3.60673
    endloop
  endfacet
  facet normal 0 1 0
    outer loop
      vertex -20.3289 41.5 0
      vertex -20.262 41.5 3.60673
      vertex 17.6289 41.5 0
    endloop
  endfacet
  facet normal 0 1 0
    outer loop
      vertex -20.262 41.5 3.60673
      vertex -20.3289 41.5 0
      vertex -20.3289 41.5 3.58576
    endloop
  endfacet
endsolid OpenSCAD_Model
