solid OpenSCAD_Model
  facet normal -1 0 0
    outer loop
      vertex -10 4.4 -8.75
      vertex -10 7.4 8.75
      vertex -10 7.4 -8.75
    endloop
  endfacet
  facet normal -1 -0 0
    outer loop
      vertex -10 7.4 8.75
      vertex -10 4.4 -8.75
      vertex -10 4.4 8.75
    endloop
  endfacet
  facet normal 0 0 1
    outer loop
      vertex 10 7.4 8.75
      vertex 6.13 4.4 8.75
      vertex 10 4.4 8.75
    endloop
  endfacet
  facet normal -0 0 1
    outer loop
      vertex 3 -1 8.75
      vertex 6.13 -5.6 8.75
      vertex 6.13 4.4 8.75
    endloop
  endfacet
  facet normal 0 0 1
    outer loop
      vertex 6.13 -5.6 8.75
      vertex 3 -1 8.75
      vertex 4.7 -6.35 8.75
    endloop
  endfacet
  facet normal 0 0 1
    outer loop
      vertex 6.13 4.4 8.75
      vertex -3 -1 8.75
      vertex 3 -1 8.75
    endloop
  endfacet
  facet normal 0 0 1
    outer loop
      vertex -6.13 4.4 8.75
      vertex 6.13 4.4 8.75
      vertex 10 7.4 8.75
    endloop
  endfacet
  facet normal 0 0 1
    outer loop
      vertex -3 -1 8.75
      vertex -4.7 -6.35 8.75
      vertex -3 -6.35 8.75
    endloop
  endfacet
  facet normal 0 0 1
    outer loop
      vertex -3 -1 8.75
      vertex -6.13 -5.6 8.75
      vertex -4.7 -6.35 8.75
    endloop
  endfacet
  facet normal 0 0 1
    outer loop
      vertex -6.13 -5.6 8.75
      vertex -3 -1 8.75
      vertex -6.13 4.4 8.75
    endloop
  endfacet
  facet normal 0 0 1
    outer loop
      vertex 6.13 4.4 8.75
      vertex -6.13 4.4 8.75
      vertex -3 -1 8.75
    endloop
  endfacet
  facet normal -0 0 1
    outer loop
      vertex -10 7.4 8.75
      vertex -6.13 4.4 8.75
      vertex 10 7.4 8.75
    endloop
  endfacet
  facet normal 0 0 1
    outer loop
      vertex -6.13 4.4 8.75
      vertex -10 7.4 8.75
      vertex -10 4.4 8.75
    endloop
  endfacet
  facet normal -0 0 1
    outer loop
      vertex 6.13 -5.6 8.75
      vertex 9.15 -7.4 8.75
      vertex 9.15 -5.6 8.75
    endloop
  endfacet
  facet normal 0 0 1
    outer loop
      vertex 4.7 -7.4 8.75
      vertex 6.13 -5.6 8.75
      vertex 4.7 -6.35 8.75
    endloop
  endfacet
  facet normal 0 0 1
    outer loop
      vertex 6.13 -5.6 8.75
      vertex 4.7 -7.4 8.75
      vertex 9.15 -7.4 8.75
    endloop
  endfacet
  facet normal 0 0 1
    outer loop
      vertex 4.7 -6.35 8.75
      vertex 3 -1 8.75
      vertex 3 -6.35 8.75
    endloop
  endfacet
  facet normal 0 0 1
    outer loop
      vertex -4.7 -6.35 8.75
      vertex -6.13 -5.6 8.75
      vertex -4.7 -7.4 8.75
    endloop
  endfacet
  facet normal 0 0 1
    outer loop
      vertex -9.15 -7.4 8.75
      vertex -6.13 -5.6 8.75
      vertex -9.15 -5.6 8.75
    endloop
  endfacet
  facet normal 0 0 1
    outer loop
      vertex -6.13 -5.6 8.75
      vertex -9.15 -7.4 8.75
      vertex -4.7 -7.4 8.75
    endloop
  endfacet
  facet normal 1 -0 0
    outer loop
      vertex 10 4.4 8.75
      vertex 10 7.4 -8.75
      vertex 10 7.4 8.75
    endloop
  endfacet
  facet normal 1 0 0
    outer loop
      vertex 10 7.4 -8.75
      vertex 10 4.4 8.75
      vertex 10 4.4 -8.75
    endloop
  endfacet
  facet normal 0 1 -0
    outer loop
      vertex 10 7.4 -8.75
      vertex -10 7.4 8.75
      vertex 10 7.4 8.75
    endloop
  endfacet
  facet normal 0 1 0
    outer loop
      vertex -10 7.4 8.75
      vertex 10 7.4 -8.75
      vertex -10 7.4 -8.75
    endloop
  endfacet
  facet normal 0 0 -1
    outer loop
      vertex -4.7 -7.4 -8.75
      vertex -6.13 -5.6 -8.75
      vertex -4.7 -6.35 -8.75
    endloop
  endfacet
  facet normal 0 0 -1
    outer loop
      vertex -9.15 -7.4 -8.75
      vertex -6.13 -5.6 -8.75
      vertex -4.7 -7.4 -8.75
    endloop
  endfacet
  facet normal -0 0 -1
    outer loop
      vertex -6.13 -5.6 -8.75
      vertex -9.15 -7.4 -8.75
      vertex -9.15 -5.6 -8.75
    endloop
  endfacet
  facet normal 0 0 -1
    outer loop
      vertex 9.15 -7.4 -8.75
      vertex 6.13 -5.6 -8.75
      vertex 9.15 -5.6 -8.75
    endloop
  endfacet
  facet normal 0 0 -1
    outer loop
      vertex 4.7 -6.35 -8.75
      vertex 6.13 -5.6 -8.75
      vertex 4.7 -7.4 -8.75
    endloop
  endfacet
  facet normal 0 0 -1
    outer loop
      vertex 4.7 -7.4 -8.75
      vertex 6.13 -5.6 -8.75
      vertex 9.15 -7.4 -8.75
    endloop
  endfacet
  facet normal 0 0 -1
    outer loop
      vertex 6.13 4.4 -8.75
      vertex 10 7.4 -8.75
      vertex 10 4.4 -8.75
    endloop
  endfacet
  facet normal -0 0 -1
    outer loop
      vertex 6.13 -5.6 -8.75
      vertex 4.7 -6.35 -8.75
      vertex 6.13 4.4 -8.75
    endloop
  endfacet
  facet normal 0 0 -1
    outer loop
      vertex -4.7 -6.35 -8.75
      vertex 6.13 4.4 -8.75
      vertex 4.7 -6.35 -8.75
    endloop
  endfacet
  facet normal 0 0 -1
    outer loop
      vertex -6.13 4.4 -8.75
      vertex -4.7 -6.35 -8.75
      vertex -6.13 -5.6 -8.75
    endloop
  endfacet
  facet normal 0 0 -1
    outer loop
      vertex -4.7 -6.35 -8.75
      vertex -6.13 4.4 -8.75
      vertex 6.13 4.4 -8.75
    endloop
  endfacet
  facet normal 0 0 -1
    outer loop
      vertex -6.13 4.4 -8.75
      vertex 10 7.4 -8.75
      vertex 6.13 4.4 -8.75
    endloop
  endfacet
  facet normal 0 0 -1
    outer loop
      vertex -10 7.4 -8.75
      vertex -6.13 4.4 -8.75
      vertex -10 4.4 -8.75
    endloop
  endfacet
  facet normal 0 0 -1
    outer loop
      vertex -6.13 4.4 -8.75
      vertex -10 7.4 -8.75
      vertex 10 7.4 -8.75
    endloop
  endfacet
  facet normal 0 -1 0
    outer loop
      vertex -9.15 -7.4 -8.75
      vertex -4.7 -7.4 8.75
      vertex -9.15 -7.4 8.75
    endloop
  endfacet
  facet normal 0 -1 -0
    outer loop
      vertex -4.7 -7.4 8.75
      vertex -9.15 -7.4 -8.75
      vertex -4.7 -7.4 -8.75
    endloop
  endfacet
  facet normal 0 -1 0
    outer loop
      vertex 4.7 -7.4 -8.75
      vertex 9.15 -7.4 8.75
      vertex 4.7 -7.4 8.75
    endloop
  endfacet
  facet normal 0 -1 -0
    outer loop
      vertex 9.15 -7.4 8.75
      vertex 4.7 -7.4 -8.75
      vertex 9.15 -7.4 -8.75
    endloop
  endfacet
  facet normal 1 -0 0
    outer loop
      vertex -4.7 -7.4 8.75
      vertex -4.7 -6.35 -8.75
      vertex -4.7 -6.35 8.75
    endloop
  endfacet
  facet normal 1 0 0
    outer loop
      vertex -4.7 -6.35 -8.75
      vertex -4.7 -7.4 8.75
      vertex -4.7 -7.4 -8.75
    endloop
  endfacet
  facet normal -1 0 0
    outer loop
      vertex 4.7 -7.4 -8.75
      vertex 4.7 -6.35 8.75
      vertex 4.7 -6.35 -8.75
    endloop
  endfacet
  facet normal -1 -0 0
    outer loop
      vertex 4.7 -6.35 8.75
      vertex 4.7 -7.4 -8.75
      vertex 4.7 -7.4 8.75
    endloop
  endfacet
  facet normal 0 -1 0
    outer loop
      vertex -4.7 -6.35 8.75
      vertex -3 -6.35 3
      vertex -3 -6.35 8.75
    endloop
  endfacet
  facet normal 0 -1 -0
    outer loop
      vertex -3 -6.35 3
      vertex -4.7 -6.35 -8.75
      vertex 3 -6.35 3
    endloop
  endfacet
  facet normal 0 -1 0
    outer loop
      vertex -4.7 -6.35 -8.75
      vertex -3 -6.35 3
      vertex -4.7 -6.35 8.75
    endloop
  endfacet
  facet normal 0 -1 0
    outer loop
      vertex 3 -6.35 3
      vertex 4.7 -6.35 8.75
      vertex 3 -6.35 8.75
    endloop
  endfacet
  facet normal 0 -1 0
    outer loop
      vertex 3 -6.35 3
      vertex 4.7 -6.35 -8.75
      vertex 4.7 -6.35 8.75
    endloop
  endfacet
  facet normal 0 -1 0
    outer loop
      vertex 4.7 -6.35 -8.75
      vertex 3 -6.35 3
      vertex -4.7 -6.35 -8.75
    endloop
  endfacet
  facet normal -1 0 0
    outer loop
      vertex -6.13 -5.6 -8.75
      vertex -6.13 4.4 8.75
      vertex -6.13 4.4 -8.75
    endloop
  endfacet
  facet normal -1 -0 0
    outer loop
      vertex -6.13 4.4 8.75
      vertex -6.13 -5.6 -8.75
      vertex -6.13 -5.6 8.75
    endloop
  endfacet
  facet normal 0 -1 0
    outer loop
      vertex -10 4.4 -8.75
      vertex -6.13 4.4 8.75
      vertex -10 4.4 8.75
    endloop
  endfacet
  facet normal 0 -1 -0
    outer loop
      vertex -6.13 4.4 8.75
      vertex -10 4.4 -8.75
      vertex -6.13 4.4 -8.75
    endloop
  endfacet
  facet normal 0 1 -0
    outer loop
      vertex -6.13 -5.6 -8.75
      vertex -9.15 -5.6 8.75
      vertex -6.13 -5.6 8.75
    endloop
  endfacet
  facet normal 0 1 0
    outer loop
      vertex -9.15 -5.6 8.75
      vertex -6.13 -5.6 -8.75
      vertex -9.15 -5.6 -8.75
    endloop
  endfacet
  facet normal -1 0 0
    outer loop
      vertex -9.15 -7.4 -8.75
      vertex -9.15 -5.6 8.75
      vertex -9.15 -5.6 -8.75
    endloop
  endfacet
  facet normal -1 -0 0
    outer loop
      vertex -9.15 -5.6 8.75
      vertex -9.15 -7.4 -8.75
      vertex -9.15 -7.4 8.75
    endloop
  endfacet
  facet normal 1 -0 0
    outer loop
      vertex 6.13 -5.6 8.75
      vertex 6.13 4.4 -8.75
      vertex 6.13 4.4 8.75
    endloop
  endfacet
  facet normal 1 0 0
    outer loop
      vertex 6.13 4.4 -8.75
      vertex 6.13 -5.6 8.75
      vertex 6.13 -5.6 -8.75
    endloop
  endfacet
  facet normal 0 -1 0
    outer loop
      vertex 6.13 4.4 -8.75
      vertex 10 4.4 8.75
      vertex 6.13 4.4 8.75
    endloop
  endfacet
  facet normal 0 -1 -0
    outer loop
      vertex 10 4.4 8.75
      vertex 6.13 4.4 -8.75
      vertex 10 4.4 -8.75
    endloop
  endfacet
  facet normal 0 1 -0
    outer loop
      vertex 9.15 -5.6 -8.75
      vertex 6.13 -5.6 8.75
      vertex 9.15 -5.6 8.75
    endloop
  endfacet
  facet normal 0 1 0
    outer loop
      vertex 6.13 -5.6 8.75
      vertex 9.15 -5.6 -8.75
      vertex 6.13 -5.6 -8.75
    endloop
  endfacet
  facet normal 1 -0 0
    outer loop
      vertex 9.15 -7.4 8.75
      vertex 9.15 -5.6 -8.75
      vertex 9.15 -5.6 8.75
    endloop
  endfacet
  facet normal 1 0 0
    outer loop
      vertex 9.15 -5.6 -8.75
      vertex 9.15 -7.4 8.75
      vertex 9.15 -7.4 -8.75
    endloop
  endfacet
  facet normal 1 -0 0
    outer loop
      vertex -3 -6.35 8.75
      vertex -3 -1 3
      vertex -3 -1 8.75
    endloop
  endfacet
  facet normal 1 0 0
    outer loop
      vertex -3 -1 3
      vertex -3 -6.35 8.75
      vertex -3 -6.35 3
    endloop
  endfacet
  facet normal -1 0 0
    outer loop
      vertex 3 -6.35 3
      vertex 3 -1 8.75
      vertex 3 -1 3
    endloop
  endfacet
  facet normal -1 -0 0
    outer loop
      vertex 3 -1 8.75
      vertex 3 -6.35 3
      vertex 3 -6.35 8.75
    endloop
  endfacet
  facet normal 0 -1 0
    outer loop
      vertex -3 -1 3
      vertex 3 -1 8.75
      vertex -3 -1 8.75
    endloop
  endfacet
  facet normal 0 -1 -0
    outer loop
      vertex 3 -1 8.75
      vertex -3 -1 3
      vertex 3 -1 3
    endloop
  endfacet
  facet normal -0 0 1
    outer loop
      vertex -3 -1 3
      vertex 3 -6.35 3
      vertex 3 -1 3
    endloop
  endfacet
  facet normal 0 0 1
    outer loop
      vertex 3 -6.35 3
      vertex -3 -1 3
      vertex -3 -6.35 3
    endloop
  endfacet
endsolid OpenSCAD_Model
